<?xml version="1.0" standalone="no"?><!DOCTYPE svg PUBLIC "-//W3C//DTD SVG 1.1//EN" "http://www.w3.org/Graphics/SVG/1.1/DTD/svg11.dtd" ><svg xmlns="http://www.w3.org/2000/svg"><metadata></metadata><defs><font id="fonteditor" horiz-adv-x="256"><font-face font-family="H~çN-xl{LNf" font-weight="400" font-stretch="normal" units-per-em="256" panose-1="2 1 6 9 3 1 1 1 1 1" ascent="220" descent="-36" x-height="1" bbox="0 -37 262 218" underline-thickness="0" underline-position="0" unicode-range="U+002c-9ad8" /><missing-glyph horiz-adv-x="256"  /><glyph glyph-name="uniAD" unicode=",­" d="M55 34 Q67 34 67 24 L67 22 Q67 10 47 -12 L45 -10 Q55 11 55 15 L55 25 L53 29 L53 31 L55 34 Z" /><glyph glyph-name="uni88AB" unicode="&#x88ab;" d="M161 191 L166 191 Q171 191 176 178 L178 145 L176 142 L178 126 Q198 145 214 145 L216 145 L223 138 L223 134 Q223 114 195 85 L182 79 L185 75 L193 77 Q235 71 235 50 Q235 37 221 22 L221 18 Q244 6 261 -14 L261 -20 L259 -20 L212 14 Q199 7 189 7 L182 7 Q144 14 144 43 L144 54 L149 60 L155 60 Q170 60 210 29 L214 29 L225 47 L225 50 Q214 67 201 67 L189 66 L185 66 Q172 66 159 94 L155 94 Q134 55 134 47 L136 39 L128 33 L126 33 Q117 33 117 62 L117 92 L115 92 Q102 64 102 52 Q102 14 94 14 L92 14 Q87 14 85 41 Q62 9 56 9 Q49 11 49 14 L85 85 Q37 50 14 50 L9 50 L1 58 L22 77 L26 77 L26 75 L16 66 L16 60 Q37 62 85 98 L92 98 Q102 91 102 81 Q107 82 119 113 L121 113 L126 107 L126 64 L153 100 L151 132 Q151 155 161 191 ZM163 176 L157 143 L157 124 L159 111 L161 111 Q168 111 168 145 L163 176 ZM66 170 Q88 170 100 145 Q100 133 83 130 L81 132 L81 134 L87 143 Q77 164 66 164 L66 170 ZM176 109 L176 86 L178 86 Q198 86 216 136 L210 138 Q176 126 176 109 ZM163 104 L163 100 L166 100 L166 104 L163 104 ZM77 50 L77 47 L87 58 L87 60 L77 50 ZM151 54 L149 52 L149 43 Q149 19 182 14 L187 14 Q198 14 202 22 Q163 54 151 54 Z" /><glyph glyph-name="uni5E76" unicode="&#x5e76;" d="M91 189 L104 159 L106 159 Q107 169 112 169 L114 169 Q112 148 106 148 L100 148 Q91 148 87 188 L89 189 L91 189 ZM138 188 L142 188 L148 182 L148 176 L110 132 L112 132 Q145 150 165 150 L171 144 L171 142 Q132 111 108 87 Q108 83 114 83 L114 81 L112 79 L112 77 L114 75 Q148 91 155 91 L155 93 Q155 110 146 110 L146 112 L150 115 Q163 115 167 94 Q189 104 230 113 L233 108 L233 106 Q233 97 192 89 L186 89 L176 91 Q176 87 167 85 L171 66 L169 66 L171 64 L171 -25 L165 -31 L157 -23 L161 -2 L159 -1 L161 15 L159 79 L157 81 L155 81 Q128 74 116 64 L116 58 Q119 58 119 64 L121 66 L127 66 L127 64 Q118 52 110 28 L108 26 L102 26 Q98 26 98 32 Q106 49 106 60 L104 60 L38 32 Q30 35 30 37 L89 79 L85 89 L93 94 L104 91 L155 138 L155 140 Q131 135 100 113 L87 104 L85 104 L79 110 L79 112 Q133 165 138 180 L135 184 L129 182 L129 186 L138 188 ZM76 60 L78 60 Q99 67 104 75 L97 77 Q82 69 76 60 Z" /><glyph glyph-name="uni4E0D" unicode="&#x4e0d;" d="M189 147 L191 145 L191 141 Q189 133 155 116 Q149 107 142 107 L168 134 L166 134 Q159 134 70 96 L58 94 L58 96 L56 94 L54 94 Q43 94 41 120 L43 122 L47 122 Q47 107 54 105 L60 105 Q68 105 155 141 Q167 147 189 147 ZM130 111 L132 111 L140 103 L140 88 L128 71 Q134 59 134 35 Q134 10 127 10 L125 10 Q119 10 115 33 L117 54 Q102 48 87 21 L77 20 L75 20 L71 23 L71 25 Q102 51 117 73 L111 82 Q111 85 119 88 L119 86 L117 84 L117 82 L123 80 L130 92 L128 94 L128 96 L130 97 L130 99 L128 101 L128 103 L130 111 ZM182 56 L184 56 Q222 44 227 31 L227 25 L223 21 Q206 37 201 37 Q182 50 182 54 L182 56 Z" /><glyph glyph-name="uni5F69" unicode="&#x5f69;" d="M84 184 L86 184 Q112 174 114 167 L114 163 Q114 145 84 139 L84 141 Q103 153 103 163 Q85 172 80 181 L84 184 ZM158 146 Q167 144 167 133 Q167 122 158 93 L158 91 L181 97 L194 97 Q198 96 201 87 Q197 75 158 36 L152 34 L152 32 L156 32 L207 40 L226 40 Q257 40 257 34 L257 29 L251 23 L243 23 Q233 23 230 30 L152 21 Q142 21 137 30 Q176 59 184 82 L188 87 L181 89 L156 80 L150 80 L144 86 L144 91 L152 112 L152 114 L150 114 Q150 110 112 53 L112 17 Q112 0 103 0 Q89 0 82 15 Q82 23 101 53 L101 55 L99 57 L99 59 Q59 38 53 38 L48 44 Q75 65 93 87 L89 93 L89 97 L93 101 L105 99 L122 122 L122 124 L120 124 Q105 124 86 103 Q71 103 65 125 L61 129 Q61 133 67 133 Q72 133 84 114 L120 135 L125 135 Q137 134 137 129 Q136 120 114 97 Q117 89 124 86 Q142 98 154 144 L156 146 L158 146 ZM19 129 L21 129 L46 105 L48 105 L57 116 L59 114 L59 112 Q55 95 49 95 L46 95 Q28 95 19 125 L19 129 ZM106 87 L106 82 L110 82 L110 87 L106 87 ZM84 65 L86 65 L97 70 L97 78 L84 65 ZM95 29 L95 11 L97 11 L101 15 L101 34 L95 29 Z" /><glyph glyph-name="uni886C" unicode="&#x886c;" d="M166 191 L168 191 Q182 191 194 136 Q212 139 212 146 L216 146 L233 148 Q241 145 241 142 L241 140 Q241 134 210 130 L196 124 L196 120 L194 120 Q198 110 198 79 L198 19 L200 11 L198 4 L198 0 L200 -8 L198 -10 L198 -12 L200 -14 L200 -16 L196 -26 L190 -26 Q174 -10 174 8 L174 10 L178 13 Q184 7 184 2 L186 2 L188 15 L188 81 Q187 120 182 120 L143 104 Q158 82 158 53 L158 43 L152 37 L147 43 L147 49 Q147 72 135 100 L115 94 L115 96 Q115 105 182 132 Q182 150 168 187 L166 187 L166 191 ZM74 167 Q100 159 101 154 L101 148 L91 138 L89 140 L89 142 L91 150 Q81 150 70 163 L74 167 ZM103 122 L105 122 Q108 122 111 114 L107 96 L109 83 L107 83 L109 77 Q109 23 99 19 L97 19 Q92 19 89 41 L87 41 Q75 29 68 29 L62 37 L62 41 L91 98 L91 102 L89 104 L81 104 Q74 104 48 86 Q40 89 40 92 Q67 114 87 114 L97 112 Q99 122 103 122 ZM95 77 L95 71 L97 71 L97 77 L95 77 ZM76 45 L89 61 L89 67 Q76 52 76 45 Z" /><glyph glyph-name="uni5904" unicode="&#x5904;" d="M100 186 L106 174 Q106 164 86 135 L86 131 L88 131 L116 151 L120 151 L124 147 L124 143 L122 141 Q110 137 110 127 L110 123 L112 123 L106 60 Q155 26 203 26 L201 28 L201 30 Q201 36 220 36 Q229 32 234 24 L234 22 L226 13 L211 13 Q153 13 102 50 Q81 -17 57 -17 Q48 -13 47 -9 L47 1 L49 11 L53 11 L53 5 Q54 -7 59 -7 L63 -7 Q90 24 90 58 Q72 66 63 82 L63 85 L65 85 Q72 85 94 68 L96 70 L102 129 Q93 126 73 107 L61 99 Q53 102 53 105 Q90 154 96 178 Q84 178 84 182 L100 186 ZM146 166 Q171 147 171 103 Q205 91 205 85 L205 80 L197 80 Q182 89 171 89 L173 76 L171 74 L171 72 L173 60 L173 52 L167 46 Q161 46 159 66 L161 85 L161 95 Q156 95 144 107 L144 113 L151 113 L157 109 L159 109 L159 111 Q159 140 140 160 L146 166 Z" /><glyph glyph-name="uni7A97" unicode="&#x7a97;" d="M97 208 Q123 197 123 185 Q123 177 110 170 L106 174 Q114 177 114 187 L97 206 L97 208 ZM179 182 L185 182 L191 175 Q188 170 121 139 Q121 136 112 137 Q173 169 174 173 L170 173 Q78 156 78 115 L76 113 L70 113 L66 117 L66 128 L68 130 L51 170 L53 172 L55 172 Q76 151 76 141 L78 141 Q117 181 179 182 ZM129 141 L131 141 Q143 136 167 134 L169 132 L169 126 L165 122 L142 122 Q123 122 123 107 Q102 71 85 71 Q97 52 97 41 Q99 41 102 48 Q121 49 121 60 Q133 70 133 80 L133 86 Q123 86 104 61 L100 61 Q100 80 137 98 L144 105 L152 103 L180 109 Q194 107 195 101 Q189 -7 182 -7 L180 -7 Q169 -7 157 8 L154 8 Q137 -5 127 -5 L123 -5 Q113 -5 108 4 Q109 10 135 18 L148 27 L148 33 L123 23 Q111 23 100 33 L100 31 L102 23 L100 23 L104 12 Q104 2 99 1 L97 1 Q88 1 87 42 Q84 42 80 63 L70 73 Q70 76 91 80 Q116 101 121 124 L127 124 L137 126 L129 141 ZM99 139 L108 136 L87 90 L81 90 L78 94 L78 98 Q88 113 97 139 L99 139 ZM144 77 Q161 77 163 69 L163 58 L159 52 L159 50 Q171 48 171 41 L157 25 Q157 20 167 20 L167 18 L163 10 L175 3 Q180 3 184 75 L184 98 L176 99 Q144 95 144 77 ZM144 69 L144 67 L146 54 L148 54 Q154 56 154 65 L144 69 ZM131 52 L140 52 L140 54 L138 63 Q131 60 131 52 ZM108 44 L106 41 Q109 31 119 31 Q132 31 137 42 L108 44 ZM154 41 L152 39 L154 33 L157 33 L157 37 L154 41 ZM121 4 L123 4 Q138 4 154 18 L152 20 L150 20 Q121 7 121 4 Z" /><glyph glyph-name="uni5439" unicode="&#x5439;" d="M133 188 Q149 183 149 158 L135 99 Q169 135 187 135 L192 128 Q192 110 156 72 Q144 19 135 19 Q135 12 124 4 L116 4 L114 14 L116 15 L120 15 L120 12 Q133 24 145 63 L145 67 L143 69 Q149 71 149 80 L149 88 L152 88 L152 80 L156 80 L181 118 L181 124 L177 124 Q153 110 135 82 L120 67 L118 67 Q115 67 112 74 Q137 129 137 160 Q137 173 133 181 L131 179 L126 179 L126 183 Q126 185 133 188 ZM48 95 Q61 73 61 67 L63 67 Q80 87 80 91 L90 91 L99 84 L99 93 L101 93 L103 91 L105 91 L103 78 L103 53 Q103 36 92 36 L88 42 L90 52 L90 76 L88 86 Q78 86 69 48 L63 44 Q56 45 44 88 L44 91 L48 95 ZM160 42 Q199 15 234 15 L251 15 L257 10 L251 4 Q188 4 160 34 L158 40 L160 42 Z" /><glyph glyph-name="uni4ECE" unicode="&#x4ece;" d="M164 164 L170 164 Q176 164 179 147 L179 132 Q179 120 153 65 L156 63 Q145 63 137 41 Q113 14 109 14 L105 14 L101 18 L101 25 Q101 35 120 35 Q163 93 168 138 Q167 152 160 160 L164 164 ZM56 132 Q75 125 75 111 L67 82 Q94 72 94 50 L97 50 Q103 50 120 96 L122 96 L126 92 L109 48 L97 33 L94 33 Q89 33 80 63 L71 71 Q58 71 35 39 L31 39 L29 41 L29 44 Q29 55 54 82 L65 109 L65 115 L52 128 L56 132 ZM170 63 Q227 45 240 25 L232 18 L229 18 Q217 35 166 54 L164 56 L164 58 Q164 63 170 63 Z" /><glyph glyph-name="uni5F97" unicode="&#x5f97;" d="M137 199 Q146 196 146 189 L148 189 L156 195 L170 195 L180 185 L176 110 L174 108 Q186 106 186 102 L176 91 Q188 73 192 73 L231 83 L237 83 L241 79 L241 77 L237 73 L231 73 L229 75 L194 65 Q202 49 202 27 L202 25 Q197 -18 190 -18 L188 -18 L184 -14 L184 -12 Q191 -8 194 23 Q190 61 180 61 L144 53 L150 18 L148 16 L146 16 L133 49 Q103 46 103 21 Q98 -4 91 -4 L89 -4 L83 0 L85 10 L83 21 L85 23 L85 25 Q83 44 77 59 Q72 56 56 23 L42 10 L36 16 Q44 35 54 39 Q81 92 83 102 L83 104 L81 104 Q81 101 50 77 Q50 67 36 67 L34 69 L34 71 Q58 104 79 146 L85 146 Q85 139 66 100 Q75 104 87 118 L89 118 Q95 116 95 106 Q87 80 79 69 L79 67 Q93 57 93 29 L95 29 Q95 39 99 39 L97 41 L97 47 Q104 52 111 91 L115 91 L115 87 L123 87 Q123 92 137 98 L135 104 L144 171 L137 193 L135 193 Q135 187 131 187 L129 187 Q133 199 137 199 ZM152 187 L150 185 Q154 171 164 162 L168 152 L170 152 L172 183 L168 187 L162 185 L152 187 ZM152 160 L154 146 L154 136 L158 136 L158 150 L156 160 L152 160 ZM160 116 L162 110 L166 110 L168 124 L168 130 L166 130 Q162 130 160 116 ZM133 91 L133 87 Q160 99 160 102 L160 104 L156 104 Q140 91 133 91 ZM121 71 L115 77 L113 77 L109 55 L111 53 L119 59 L129 57 L178 69 Q174 87 168 87 L152 77 L150 79 L150 81 Q162 87 166 94 L164 94 Q132 71 121 71 Z" /><glyph glyph-name="uni7684" unicode="&#x7684;" d="M175 155 L179 149 L179 143 Q179 129 159 75 L159 73 L161 73 L185 79 L195 79 Q202 79 217 69 L239 73 L239 71 Q238 66 223 61 Q223 22 175 12 L173 12 Q155 16 155 22 L155 29 Q175 55 207 63 Q207 69 187 71 L185 71 L157 61 L155 61 Q147 64 147 75 Q169 129 169 139 L161 139 L151 134 L151 136 Q151 155 175 155 ZM149 130 L149 126 L145 126 L149 130 ZM64 126 Q75 126 98 117 L114 120 L118 117 L118 115 Q118 111 92 101 L86 101 L86 105 L88 107 L88 109 Q82 109 62 120 L62 122 L64 124 L64 126 ZM139 120 L141 120 Q120 93 120 84 L128 77 L128 75 Q115 27 102 27 L98 27 Q92 29 92 39 L94 41 L96 41 L94 42 L106 75 L104 75 Q66 55 66 33 L60 29 Q50 40 40 73 L42 75 L44 75 Q54 68 60 52 L62 52 Q62 58 74 61 Q84 74 112 86 Q125 110 139 120 ZM114 77 L112 63 Q118 65 118 75 L118 77 L114 77 ZM112 61 L110 56 L110 54 L112 54 L114 61 L112 61 ZM171 25 L175 22 L179 22 Q213 34 213 56 L213 58 Q187 49 175 31 L171 25 Z" /><glyph glyph-name="uni90FD" unicode="&#x90fd;" d="M81 205 Q90 205 100 155 L108 148 L94 140 L96 131 L96 110 L100 110 L117 133 L123 133 L144 123 L155 144 L159 144 Q178 136 197 136 L206 129 Q206 118 191 97 L191 95 L197 97 Q231 97 231 81 Q218 55 208 55 Q208 43 191 43 L180 43 L174 38 L176 36 L174 22 L174 -22 L172 -24 L174 -26 L174 -33 L170 -37 L165 -14 L166 -12 L165 -2 L165 36 Q165 52 153 79 L157 79 L161 70 L163 70 L163 74 L157 116 L159 117 L163 117 Q173 117 176 57 L187 53 L195 53 Q215 70 220 83 L210 87 L182 83 L176 93 Q193 117 193 125 Q160 127 155 131 Q136 97 130 78 Q133 78 138 66 Q138 39 119 21 L115 21 Q111 21 108 30 L117 70 Q98 63 98 47 L98 43 L102 32 L96 24 L94 24 Q87 28 75 51 L73 51 Q61 23 56 21 L52 21 L49 24 L49 26 L89 89 L89 91 L87 91 Q26 64 11 64 L3 70 L28 85 L33 85 L30 79 L32 79 L68 93 L64 97 L54 95 L54 97 Q57 104 71 104 L79 100 Q85 102 87 108 L85 148 Q76 151 70 161 L73 165 L83 163 L83 167 L77 203 L79 205 L81 205 ZM83 66 L87 53 L90 53 Q103 81 125 81 L140 116 L138 116 Q119 116 83 66 ZM125 66 L117 38 L121 38 L127 64 L127 66 L125 66 Z" /><glyph glyph-name="uni6735" unicode="&#x6735;" d="M151 195 L157 187 Q151 181 151 151 L151 145 L155 113 L189 124 L193 119 L193 117 Q190 109 149 94 L147 96 L147 98 L155 100 Q142 115 142 130 L142 168 L140 177 Q105 172 105 151 L109 132 Q103 63 81 63 L56 46 Q82 46 138 79 L138 81 Q136 90 117 105 L123 111 Q134 111 147 81 Q158 87 187 92 Q208 88 208 82 L202 77 Q180 79 180 82 Q149 74 149 69 L151 60 L149 60 L151 54 L149 52 L149 50 L151 43 L149 43 L151 37 L149 27 L151 12 L149 10 L151 8 L151 1 Q151 -5 143 -5 Q119 1 117 8 L96 5 L94 6 L94 8 Q98 9 107 20 L104 31 L105 33 L107 33 L113 27 L115 27 L121 46 L119 52 L121 54 L126 54 L132 48 L132 46 Q132 35 123 24 L123 20 L140 8 L142 33 L140 35 L140 37 L142 46 L140 60 L142 60 L140 67 Q75 35 45 35 L37 41 L37 43 Q48 53 92 75 L88 82 L98 134 Q98 142 86 157 L92 162 L102 158 Q102 177 147 195 L151 195 ZM162 33 Q180 27 214 25 L216 24 L216 20 L210 14 L208 14 Q182 14 159 29 L162 33 Z" /><glyph glyph-name="uni800C" unicode="&#x800c;" d="M82 145 L84 143 L86 143 L119 145 Q127 143 127 137 Q107 99 52 77 L46 77 L46 75 L68 38 L70 38 Q70 51 76 51 Q80 45 82 24 Q79 16 76 16 Q64 25 28 79 L28 81 Q28 85 34 85 Q42 82 42 79 Q73 79 111 131 L88 131 Q80 135 80 143 L82 145 ZM219 123 Q235 123 235 113 Q220 74 179 51 Q165 51 165 22 Q165 -34 153 -34 L151 -34 L147 -22 L147 -8 Q151 -8 157 44 Q157 55 143 69 L143 73 L147 73 L153 69 L155 69 L155 73 Q155 85 145 91 L153 95 Q162 95 169 61 L175 61 Q219 93 219 111 L213 113 L211 111 L207 111 L205 113 L121 93 L121 89 Q131 87 131 83 Q119 79 119 77 Q120 53 123 53 L127 49 L127 42 L121 36 L119 36 Q111 36 106 79 L108 87 L106 87 Q87 76 74 57 L70 75 Q118 112 197 121 L219 123 Z" /><glyph glyph-name="uni98CE" unicode="&#x98ce;" d="M154 173 L156 173 L163 165 L161 163 L163 162 L163 158 L161 156 L163 154 L163 135 L161 133 L163 131 L163 95 Q163 67 186 25 Q202 11 224 11 L205 42 L207 42 Q221 39 252 8 L252 4 L249 0 L233 2 L228 0 Q183 0 167 38 Q163 61 144 61 L135 61 Q118 38 112 36 Q89 36 89 63 L87 65 L87 68 L93 74 L119 74 L121 72 L123 72 L123 86 L114 116 L116 118 L118 118 Q129 111 137 72 L156 70 Q154 158 148 158 L146 158 Q134 155 89 120 L87 120 L87 124 Q121 162 154 173 ZM55 103 L57 103 Q70 103 74 70 Q66 27 57 27 L51 32 Q58 68 62 74 L62 76 L55 103 ZM100 63 L100 59 Q100 44 110 44 Q121 56 121 63 L119 63 L112 65 L100 63 Z" /><glyph glyph-name="uni9AD8" unicode="&#x9ad8;" d="M113 194 L117 194 Q128 194 137 181 Q135 164 120 164 L118 166 L118 168 Q126 172 126 177 L113 192 L113 194 ZM124 154 L130 145 L120 122 L122 122 Q133 128 143 128 L149 120 L149 118 Q117 82 105 82 L105 84 Q130 106 134 116 L134 118 L132 118 Q128 118 107 95 L105 95 L101 99 Q104 115 117 143 L113 143 L88 137 L82 145 L82 149 L90 152 L94 149 L124 154 ZM206 103 Q229 100 229 80 Q208 -5 202 -9 L200 -11 L189 -11 Q170 -11 145 23 L143 21 L136 21 L132 25 L132 29 Q144 39 149 50 L149 52 L147 50 L143 50 L141 52 L139 52 L124 38 L126 29 L126 27 L120 21 L118 21 Q112 21 105 48 L113 48 Q117 48 117 42 L120 42 Q131 61 149 61 L149 59 L151 61 L153 61 Q161 58 162 54 Q162 48 147 27 Q163 12 194 2 L196 2 Q217 70 217 80 L208 94 L206 92 L198 92 Q170 92 82 59 Q82 48 79 48 Q75 48 75 54 Q75 76 147 90 Q162 97 206 103 ZM37 63 Q41 63 63 35 L69 31 L77 33 Q82 25 82 2 L77 -1 L71 -1 Q71 16 35 54 L31 61 L37 63 Z" /><glyph glyph-name="uni5149" unicode="&#x5149;" d="M117 196 Q132 183 132 164 L132 115 L134 115 Q156 131 156 144 Q156 147 144 153 L144 155 L148 158 L154 158 Q168 151 168 142 Q168 127 136 110 L128 95 L126 94 L123 94 L116 97 L105 95 Q105 100 112 100 L112 102 Q101 113 101 124 L103 124 Q116 116 116 108 Q121 108 121 153 Q121 172 112 195 L114 196 L117 196 ZM81 146 L85 146 L90 142 Q83 142 83 132 L79 128 L81 126 L81 124 L79 114 L81 112 L83 112 L96 122 L97 120 Q86 100 79 100 Q70 104 69 108 L69 120 Q69 136 81 146 ZM157 104 L164 104 L164 95 Q145 80 117 45 Q134 45 150 21 Q157 15 164 15 Q235 24 235 35 L235 37 Q228 43 224 81 L218 95 L220 97 L222 97 Q245 53 249 34 L251 32 Q251 24 235 21 Q235 14 166 3 Q142 3 126 35 L116 37 L112 37 L90 11 L85 11 L81 15 L81 19 L126 72 L123 72 Q76 45 61 45 L56 45 L45 55 Q92 94 103 94 L103 92 Q93 78 63 61 L63 59 L69 59 Q114 73 157 104 Z" /><glyph glyph-name="uni8FC7" unicode="&#x8fc7;" d="M126 200 Q130 200 150 173 L189 157 L197 160 L202 152 Q202 148 178 144 L162 133 L166 83 L160 40 L155 40 Q143 48 134 65 L124 67 L116 65 Q116 69 101 81 L101 83 L106 87 Q125 87 136 67 L138 69 L142 69 L155 59 L158 87 Q157 124 152 132 Q102 107 96 107 L85 107 L79 113 Q114 124 150 144 L150 146 Q143 173 119 198 L122 200 L126 200 ZM157 162 L157 157 Q157 148 160 148 Q173 150 173 153 L157 162 ZM49 95 Q65 43 83 43 Q108 29 122 29 L126 22 L126 20 L124 18 L124 16 L126 16 Q155 24 197 29 L197 27 L198 29 L229 29 L235 22 Q235 17 221 16 L221 18 L218 16 L215 16 L213 18 L211 16 L209 16 L79 0 L76 0 Q67 3 63 11 L69 16 L74 12 L81 12 L116 14 L116 18 Q49 33 49 74 L51 83 Q46 83 45 93 L47 95 L49 95 Z" /><glyph glyph-name="uni4F55" unicode="&#x4f55;" d="M186 157 L190 157 L196 151 Q196 143 163 136 L161 138 L161 140 Q95 118 95 106 L85 102 L83 104 L83 108 Q109 137 169 153 L186 157 ZM49 132 L61 132 L66 123 Q66 115 53 83 L55 85 L66 85 Q85 85 85 58 L83 58 L85 56 L85 52 L83 51 L85 49 L85 47 L83 45 L85 43 L85 41 Q80 29 76 28 L72 32 L72 52 Q72 77 63 77 L42 62 L40 62 L34 68 L57 121 Q57 127 49 127 L49 132 ZM154 130 L154 125 Q146 124 146 119 Q163 106 163 85 Q147 30 114 30 Q102 34 102 45 Q102 59 142 83 L152 87 L152 98 Q145 111 135 119 Q135 122 154 130 ZM190 96 L199 96 Q230 91 230 73 L230 70 Q230 52 196 11 Q171 -16 163 -16 L161 -14 L161 -12 Q161 -1 175 -1 Q220 50 220 77 Q211 87 201 87 L201 89 L199 87 L186 89 L182 89 L175 85 L167 90 Q174 96 190 96 ZM116 47 L118 39 Q150 47 150 83 Q116 62 116 47 Z" /><glyph glyph-name="uni5408" unicode="&#x5408;" d="M98 174 Q110 171 120 131 L150 149 Q158 146 158 142 L158 140 Q155 132 114 104 L62 64 L62 60 L176 112 Q185 111 185 104 Q185 99 141 60 Q126 32 120 31 L126 31 Q126 45 199 71 L214 71 L219 66 Q202 28 166 6 L156 0 L148 6 L148 8 Q183 31 201 58 L201 60 Q187 59 112 16 L106 26 L150 86 L45 42 L38 42 L34 46 L34 52 Q39 59 92 94 L112 114 Q99 160 94 167 L94 171 L98 174 Z" /><glyph glyph-name="uni5F88" unicode="&#x5f88;" d="M157 182 L168 182 L168 175 L159 163 L161 162 L159 152 L159 148 L163 131 L161 114 Q167 114 168 99 L159 78 Q144 71 144 61 L146 61 L193 84 Q208 84 212 63 L210 51 L212 51 L252 55 Q262 53 262 49 L258 46 L252 46 L250 48 L241 44 L231 46 L214 42 L214 44 Q204 44 155 0 L142 0 Q125 0 121 32 L121 34 L100 29 L98 30 Q92 0 85 0 L81 4 L83 53 L81 68 L75 65 L75 68 L81 74 Q92 74 94 53 L94 38 Q123 42 123 49 L125 68 L125 103 L127 105 L125 110 L129 120 L127 122 L127 124 L130 139 L140 139 L151 148 L151 160 L148 163 Q148 158 140 154 L134 165 L157 182 ZM83 177 L85 175 L85 171 L83 169 L85 163 L77 133 L79 131 L81 131 L91 143 L94 139 L94 135 L81 93 Q55 30 30 4 L28 4 L24 8 L24 10 Q57 51 79 110 Q79 124 85 125 L81 125 L62 103 Q58 103 56 114 Q66 129 81 171 L79 173 L79 175 L81 177 L83 177 ZM146 135 Q145 131 136 127 Q138 103 144 103 L149 112 L144 122 L144 124 L149 124 L149 131 L146 135 ZM157 103 L161 99 L161 106 L157 103 ZM136 46 L136 44 L138 44 L148 46 L148 44 Q158 48 178 48 L180 46 L184 48 L187 49 L189 48 L191 49 L193 49 L195 48 Q204 51 205 55 L205 57 Q205 67 199 68 L186 68 Q162 68 136 46 ZM151 36 L136 36 Q132 36 132 30 Q132 14 142 10 Q154 10 187 36 L189 38 L189 40 L187 40 L151 36 Z" /><glyph glyph-name="uni5019" unicode="&#x5019;" d="M138 183 Q178 177 178 174 L178 170 L159 143 L159 141 L173 149 L192 149 L195 145 Q195 142 165 126 L135 84 L173 103 L176 103 L180 100 L180 92 Q168 74 157 65 L156 60 L186 69 L190 62 L165 29 L171 27 Q247 23 247 12 Q243 3 239 3 L186 18 L184 16 L182 16 Q170 22 159 22 L133 1 L129 5 L129 8 Q131 15 148 24 L169 50 L169 54 Q151 51 129 35 L125 35 L121 39 L121 44 Q130 46 163 86 L163 88 L118 65 Q110 68 110 71 Q152 122 152 128 L150 128 Q108 116 108 109 Q105 63 95 63 Q88 63 87 90 L85 90 Q70 35 70 1 L62 -5 L57 3 L57 46 L59 73 L57 84 L38 67 Q33 67 32 75 Q50 133 59 141 L62 128 L51 96 L51 94 L57 96 Q68 92 68 81 L68 48 L70 48 Q73 76 89 100 Q89 107 93 107 Q99 105 100 96 L106 117 L104 124 L110 130 L116 130 L119 128 Q156 148 161 168 L129 176 L129 181 L138 183 Z" /><glyph glyph-name="uni4F1A" unicode="&#x4f1a;" d="M105 191 L109 190 L111 170 L108 160 Q91 110 46 49 L39 45 Q35 46 36 52 Q59 76 97 154 L102 169 L105 191 ZM121 164 Q145 111 211 106 Q238 104 240 94 Q240 88 232 88 L211 91 L193 93 L177 99 Q169 103 156 108 Q115 142 117 162 L119 164 L121 164 ZM100 119 L102 118 Q107 112 119 111 L121 107 L123 108 L126 108 Q137 106 137 102 Q136 97 96 72 L92 72 L92 74 L118 99 Q100 100 95 113 L95 115 L100 119 ZM153 80 L160 80 L159 76 Q159 65 100 15 L108 12 L125 17 L125 15 Q162 23 163 35 Q165 46 168 46 Q186 45 198 -4 L189 -10 L176 22 L174 22 Q141 5 97 1 L84 2 L80 9 L134 57 L138 66 L136 67 Q87 46 70 46 L63 52 L63 56 Q70 65 84 71 L89 70 L88 65 L86 63 L86 61 L89 61 L129 74 L129 71 L153 80 ZM168 36 L168 32 L172 28 L174 27 L173 36 L168 36 Z" /><glyph glyph-name="uni6D3B" unicode="&#x6d3b;" d="M117 172 L123 172 Q158 165 158 160 L158 151 L148 144 L146 146 L146 148 L148 156 Q114 162 114 167 L114 169 L117 172 ZM50 154 Q78 149 78 142 L78 135 L70 128 L68 128 Q68 142 57 142 Q57 146 52 146 L50 148 L50 154 ZM136 133 Q151 119 153 110 L157 110 Q221 133 233 133 L237 128 Q237 117 196 110 L196 112 Q150 104 137 84 L132 78 L130 78 L136 94 L96 78 Q96 32 84 5 L86 4 L86 2 Q83 -7 80 -7 L74 -7 Q69 -7 59 57 L43 92 L43 94 L47 98 Q56 94 64 75 L66 75 Q72 82 93 90 L93 96 L96 96 L96 92 Q109 92 121 100 L123 98 L125 98 L130 103 L132 100 Q132 105 137 105 L140 107 L140 115 Q132 115 128 128 L128 131 L136 133 ZM96 121 L100 121 L98 100 L95 100 L95 110 L96 121 ZM206 75 Q214 72 214 69 Q214 59 162 9 L157 9 L153 14 L153 16 Q153 19 171 30 Q185 43 196 61 L194 64 L181 59 L179 61 Q179 55 160 50 Q132 39 132 32 L136 14 Q133 5 130 5 Q116 5 103 53 L109 55 L125 26 L128 34 L125 43 Q179 73 206 75 ZM76 67 L68 67 L76 22 L78 22 Q83 22 91 71 L89 71 L76 67 Z" /><glyph glyph-name="uni53CA" unicode="&#x53ca;" d="M141 175 L144 175 L150 169 L150 167 Q144 167 135 108 Q135 91 164 86 Q185 69 185 58 L182 47 Q258 28 258 4 L254 0 Q254 16 187 35 L187 37 L185 35 L183 35 L176 39 Q150 13 124 13 Q106 15 88 24 L83 22 Q55 64 55 72 L57 74 L77 74 L90 72 L90 74 L96 111 L92 123 L94 123 L92 125 L92 132 L96 132 Q104 116 104 108 Q104 82 100 70 Q115 66 115 63 L118 65 L168 50 L174 52 L174 63 Q174 74 131 88 Q125 95 125 106 L127 108 L125 109 L125 115 L129 119 L127 121 L127 125 L129 127 L127 128 L127 130 L133 156 L131 158 L129 158 L113 143 L111 143 L111 150 Q113 155 141 175 ZM63 67 L63 63 Q69 49 81 41 L86 63 L68 67 L63 67 ZM98 56 L92 30 L111 22 L113 24 L115 22 L115 19 L127 24 L129 22 L131 22 Q149 22 164 41 L164 43 Q121 56 98 56 Z" /><glyph glyph-name="uni770B" unicode="&#x770b;" d="M111 214 Q122 212 151 183 L151 181 Q138 171 125 171 L123 173 L123 159 Q151 158 151 151 Q151 145 127 145 L119 141 L119 137 L117 135 L119 133 Q190 155 208 155 L212 149 Q212 142 170 139 L113 120 Q83 51 70 38 L68 38 L64 42 Q64 53 82 76 L97 112 L95 112 L64 104 L58 112 L68 122 L86 120 Q109 126 109 149 L109 151 Q100 155 99 159 Q99 163 105 163 L113 171 L111 181 L111 183 L115 187 Q121 181 131 179 L133 181 L133 183 L109 209 L97 205 L97 207 Q97 211 111 214 ZM168 116 L170 116 Q174 116 174 110 L170 98 Q172 60 184 -1 Q181 -13 174 -13 Q160 -13 151 3 L149 1 L143 1 Q139 1 139 7 L141 48 L137 48 L139 58 L139 60 L133 68 L133 76 L137 80 Q152 80 154 27 L151 27 Q154 18 172 1 L158 104 Q141 104 131 90 L129 90 L129 86 Q129 62 125 62 L127 60 L127 25 Q127 2 117 -1 L111 7 L121 104 L119 112 L123 112 L129 98 L131 98 Q142 116 168 116 Z" /><glyph glyph-name="uni53EF" unicode="&#x53ef;" d="M193 151 Q213 150 213 145 L213 143 Q213 137 181 129 L177 129 L177 131 L183 139 L179 139 L119 121 L67 107 L51 107 Q41 112 41 125 L43 125 L53 115 L55 115 Q107 127 183 151 L193 151 ZM173 125 Q177 123 181 85 L179 85 L181 83 L181 65 Q181 -4 167 -21 L165 -21 L163 -19 L161 -19 Q171 9 171 55 L171 67 L167 117 L173 125 ZM159 107 L161 107 L165 103 L165 99 Q157 73 115 37 L111 37 L107 43 L107 45 Q147 86 147 95 L143 95 Q97 72 97 47 L95 45 L91 45 Q73 58 73 79 L75 81 L83 81 Q87 81 87 67 Q135 106 159 107 Z" /><glyph glyph-name="uni7A7A" unicode="&#x7a7a;" d="M108 182 Q124 177 135 161 L135 153 L131 150 L122 150 L122 152 L125 157 Q115 174 103 174 L93 172 L91 174 L91 176 L108 182 ZM188 150 L192 144 L192 142 Q176 124 158 119 L158 121 L175 138 L175 140 Q153 140 87 106 L78 106 L76 98 L82 72 L74 66 Q55 123 55 134 L57 136 L59 136 L74 106 L76 106 Q76 116 141 140 Q158 150 188 150 ZM127 102 L129 102 Q157 89 167 89 L184 91 L186 89 L186 87 L177 77 L169 79 L146 74 L150 79 Q150 86 127 96 L127 102 ZM104 95 L108 91 Q102 45 95 45 L89 51 Q100 94 104 95 ZM139 55 Q161 53 161 47 Q152 23 142 13 L142 11 L186 19 L188 20 L196 20 Q217 20 217 13 L215 7 L192 9 Q180 9 103 -10 Q85 -5 85 0 Q95 8 135 19 Q146 37 146 43 L142 43 L116 36 L110 43 L110 45 L116 51 L123 51 L125 49 L139 55 Z" /><glyph glyph-name="uni53E3" unicode="&#x53e3;" d="M176 109 L189 109 L193 106 L193 102 Q158 65 147 62 L147 58 L172 64 L176 58 L176 56 Q176 52 119 39 L115 45 L115 47 Q153 73 170 96 L170 100 Q144 100 98 83 L94 87 Q119 109 176 109 ZM67 107 Q79 101 100 56 L94 52 L90 52 Q83 60 75 85 L64 98 L54 98 L54 100 Q57 107 67 107 Z" /><glyph glyph-name="uni6765" unicode="&#x6765;" d="M126 215 L128 215 Q137 209 137 199 L135 198 L137 190 L135 179 L137 171 L135 171 L145 160 L145 156 Q137 149 137 142 L137 135 L139 135 Q155 144 162 144 L168 144 L173 139 L173 137 Q173 122 137 99 L135 91 L175 99 L172 104 L172 106 L173 108 L173 110 Q204 107 204 101 L196 93 L194 95 Q145 84 141 80 L134 63 Q134 28 149 28 Q171 25 206 25 L208 25 L213 19 L210 15 L179 15 Q159 15 139 21 L145 -17 L139 -21 L137 -21 Q112 -8 103 2 L92 17 L90 17 Q90 11 82 8 L77 8 L77 11 Q91 25 92 38 L96 38 L96 32 Q122 55 124 74 L118 76 L42 51 L37 51 L29 59 L124 87 L124 91 L115 89 L115 91 Q115 94 122 97 L124 99 L124 118 L90 93 L82 101 Q87 120 126 156 Q107 161 107 167 Q107 171 113 171 L126 167 L126 194 L122 199 L122 211 L126 215 ZM97 112 L97 110 L99 110 Q126 123 126 137 L124 142 Q113 138 97 112 ZM135 106 L137 106 Q156 122 162 135 L162 137 Q135 131 135 118 L135 106 ZM99 25 Q108 12 130 0 L130 4 L132 4 Q128 30 122 30 L122 34 L126 34 L126 36 L124 46 L99 25 Z" /><glyph glyph-name="uni84DD" unicode="&#x84dd;" d="M144 215 L152 206 Q151 192 140 175 L142 175 L163 185 L171 179 Q171 176 148 162 L154 126 L159 126 Q181 139 188 139 L192 135 Q192 124 159 114 L159 111 Q175 111 175 101 Q174 96 161 88 L159 90 L159 95 L161 97 L161 99 Q142 106 142 111 L142 126 L138 158 L137 156 L133 156 L133 160 Q100 139 76 128 L72 128 L66 133 L66 135 Q69 140 118 164 Q142 190 142 215 L144 215 ZM81 206 L104 179 Q108 194 112 194 L116 194 Q111 166 100 166 L76 204 L78 206 L81 206 ZM106 135 L112 135 L123 120 L121 111 L121 94 L123 76 L121 65 L123 65 Q165 84 178 84 Q190 80 190 75 Q170 27 142 27 Q142 23 133 23 L129 23 Q121 28 118 37 Q118 53 157 61 L169 59 L178 71 L178 73 Q159 73 110 46 Q102 45 102 40 L116 19 Q113 12 110 12 Q106 12 83 50 Q74 55 74 65 L74 67 L80 67 L97 50 L102 50 Q102 57 110 57 L110 78 L112 107 L106 135 ZM72 113 Q81 101 81 95 L87 99 L89 82 L83 78 L81 78 Q75 78 66 109 L72 113 ZM135 33 L137 33 L156 50 L154 50 Q135 43 135 33 ZM218 23 Q243 20 243 14 Q239 6 233 6 L220 12 Q165 12 59 -11 L51 -5 L51 -1 Q123 14 218 23 Z" /><glyph glyph-name="uni91CC" unicode="&#x91cc;" d="M153 183 Q185 177 185 169 L185 167 Q173 153 163 103 Q157 89 149 85 L143 89 L141 87 L143 85 L141 74 L141 66 Q153 66 159 56 L159 48 Q133 24 108 24 L108 22 L110 22 L161 26 L181 28 Q197 30 213 32 Q239 32 239 26 L239 22 L233 16 L213 18 L181 17 L169 16 L149 14 L60 6 L54 14 Q85 32 110 32 L112 34 L112 36 Q106 36 100 46 Q100 55 129 64 L131 87 L131 89 L127 93 Q114 72 98 72 L96 72 L90 78 Q112 101 112 107 L94 123 L94 127 Q108 144 127 147 L125 161 L127 163 L131 163 L151 143 L145 99 L149 99 Q165 146 165 169 L147 173 L96 157 L96 159 L84 147 L80 151 Q83 163 106 173 L153 183 ZM44 161 Q65 161 74 143 Q86 101 86 87 Q82 77 78 76 Q71 76 68 131 Q58 154 50 157 L44 155 L44 161 ZM108 121 L118 115 L123 115 Q131 118 131 129 L131 137 L125 137 Q108 130 108 121 ZM141 54 L141 50 L143 50 L143 54 L141 54 ZM123 44 L123 42 L125 42 L129 46 L129 48 L127 48 L123 44 ZM78 20 L78 18 L84 18 Q106 18 106 24 L102 24 L96 22 L96 24 L78 20 Z" /><glyph glyph-name="uni697C" unicode="&#x697c;" d="M135 206 Q141 206 141 198 L139 178 Q145 153 154 153 L180 160 L188 155 L188 153 L171 138 L171 136 Q194 129 194 124 Q194 119 146 102 Q151 65 154 65 L184 75 L184 81 L182 90 L173 88 L171 90 L171 94 L177 100 L184 100 Q190 100 196 79 L226 83 L245 83 Q253 79 253 71 Q238 60 232 60 L228 65 L228 69 Q239 69 239 73 L234 75 Q190 75 190 58 L175 35 L184 5 L179 -3 L177 -3 Q160 13 160 18 L158 18 L131 12 L120 12 Q97 15 97 22 Q97 40 142 60 Q138 91 135 94 Q119 84 112 84 L108 90 L135 115 L135 124 L131 128 Q110 107 99 105 Q91 97 82 37 L84 27 L84 14 Q84 4 76 1 Q68 3 68 18 L68 33 L61 27 L57 27 L53 31 L53 37 Q74 85 74 103 L72 103 L32 92 L25 92 L17 100 L19 103 L27 102 Q76 110 76 126 L76 149 Q76 156 63 172 L63 176 L65 178 L68 178 Q85 174 85 145 Q85 139 103 122 L97 115 L97 113 L99 113 L133 141 L127 197 Q131 205 135 206 ZM142 153 L142 147 L144 147 L144 153 L142 153 ZM144 132 L144 124 L146 124 L156 132 L154 138 L150 138 L144 132 ZM148 117 L148 115 L150 115 L167 122 L161 128 L148 117 ZM156 54 L161 39 Q167 39 167 58 L169 60 L171 60 L173 50 L175 50 L179 65 Q156 60 156 54 ZM112 24 L127 20 L133 20 Q143 20 152 29 L146 52 Q112 40 112 24 Z" /><glyph glyph-name="uni4E48" unicode="&#x4e48;" d="M133 165 Q153 159 153 144 L153 142 Q153 110 105 32 L105 28 L107 28 Q155 45 184 67 Q206 53 206 36 L200 30 L198 30 Q194 30 188 49 L178 51 Q117 16 105 16 L96 16 L90 22 L90 24 Q90 29 131 102 Q143 130 143 146 Q135 159 127 159 L127 163 L133 165 ZM76 128 Q94 121 94 104 L105 112 L107 110 Q89 69 80 69 L78 69 L74 73 Q82 97 82 110 Q82 118 72 126 L74 128 L76 128 Z" /><glyph glyph-name="uni6BCF" unicode="&#x6bcf;" d="M92 186 Q99 182 104 155 L106 155 L132 171 L140 171 L146 165 L146 163 Q135 149 73 105 L73 102 Q84 68 94 68 Q99 107 106 107 Q116 107 126 94 L132 98 L134 98 Q133 72 126 72 L124 72 L110 98 L106 98 L104 86 L106 64 L108 64 L160 74 L170 96 L168 98 L168 102 L170 103 L170 105 L166 109 L166 113 L168 113 Q179 106 179 96 Q179 87 168 72 L168 70 Q219 70 219 42 Q219 27 193 3 Q165 -21 148 -21 L148 -17 Q187 -3 207 34 L211 46 Q211 58 171 62 Q159 62 138 38 Q113 19 88 19 Q59 19 59 36 Q70 56 85 56 L85 60 Q63 86 63 96 L63 105 Q64 110 104 137 L106 139 L106 141 L104 141 L96 139 Q92 144 88 185 L90 186 L92 186 ZM108 50 L106 52 L104 52 L100 48 L98 48 L94 52 Q87 52 75 36 L75 28 L94 24 Q122 28 148 60 L146 60 Q108 60 108 52 L108 50 Z" /><glyph glyph-name="uni4EEC" unicode="&#x4eec;" d="M73 159 Q83 158 82 137 L69 100 Q88 95 86 61 L86 46 L84 44 L85 42 L85 34 L77 27 Q70 27 71 52 L75 71 Q74 88 68 88 L66 88 L57 79 L53 80 Q49 80 49 85 Q70 126 70 138 L71 147 L69 157 L71 159 L73 159 ZM109 153 L119 153 L124 147 Q121 138 118 138 L114 138 L105 146 L105 150 L109 153 ZM183 143 Q213 141 210 54 Q212 54 217 6 L209 -1 Q187 0 168 21 L165 27 L167 29 L167 31 Q183 19 202 14 L202 16 Q197 68 197 110 L188 129 L180 131 L153 115 L151 121 Q152 134 183 143 ZM113 113 Q126 98 125 78 L124 52 L118 46 Q112 47 113 54 L111 54 L115 79 L109 106 L109 109 L113 113 Z" /><glyph glyph-name="uni76EE" unicode="&#x76ee;" d="M154 172 L163 172 L169 166 Q161 156 161 141 Q161 88 188 7 Q184 -2 180 -3 Q160 4 141 27 Q129 16 120 16 L118 16 L114 20 L114 22 Q127 58 127 73 L122 98 L125 102 Q137 96 137 71 L129 31 L141 41 Q149 31 173 18 Q154 85 154 145 L154 155 L150 159 Q145 159 120 141 L114 140 L112 141 L112 143 Q138 172 154 172 ZM84 115 Q101 115 101 75 L103 54 L101 29 L101 26 L93 16 Q88 16 85 37 L91 77 L89 86 L91 88 L91 90 Q91 102 74 113 L76 115 L84 115 Z" /><glyph glyph-name="uni90A3" unicode="&#x90a3;" d="M151 175 Q158 171 158 165 L159 152 L163 148 L178 152 L182 152 L191 144 L191 138 L178 88 L180 88 L213 93 L213 91 L216 93 Q231 89 231 81 Q202 33 181 34 L177 34 Q170 35 164 41 L159 30 L159 -19 L157 -37 L155 -37 L152 -33 L152 -31 L150 126 Q130 109 129 94 L128 83 L126 81 L128 79 L128 77 L123 30 L115 23 Q101 30 84 51 Q84 38 68 30 L64 36 L76 65 L76 67 L74 67 Q57 57 49 57 L43 64 L65 83 L66 85 L49 101 L47 99 L46 100 Q34 102 34 106 Q35 108 75 119 L87 126 L87 131 Q88 138 83 145 L83 152 L87 156 L91 156 Q98 155 100 127 L102 128 L110 128 L115 122 Q111 114 107 113 L108 100 L108 96 L112 96 Q120 109 121 122 L119 124 L119 126 L121 127 L122 129 L117 152 L106 153 L96 152 L97 157 Q100 165 110 164 L120 164 Q133 156 131 131 L131 123 L133 123 Q151 136 151 141 L147 171 L151 175 ZM162 132 L161 127 L163 115 L161 113 L162 100 L159 64 Q170 49 179 44 L183 44 Q206 58 220 81 L214 84 L172 75 L166 83 L167 92 L179 137 L174 141 Q165 140 162 132 ZM55 99 Q62 99 71 88 L86 103 L86 112 L55 99 ZM99 100 L100 94 L101 100 L99 100 ZM93 59 L92 57 Q96 56 112 38 L115 46 L113 48 L115 57 L117 91 Q93 68 93 59 ZM77 82 L79 82 L83 86 L83 88 L77 82 Z" /><glyph glyph-name="uni5076" unicode="&#x5076;" d="M86 175 L90 175 Q96 175 102 147 Q127 175 163 175 Q189 170 189 157 Q189 147 151 104 L147 86 L149 86 L187 92 L195 92 Q228 92 235 78 Q235 52 203 8 Q195 0 175 0 L157 12 L143 6 L142 8 L142 10 Q153 16 153 22 L149 32 L151 32 L159 26 Q171 34 181 52 L179 54 L177 54 Q146 48 130 40 Q122 43 122 46 L130 70 Q102 53 102 38 L108 26 Q105 18 102 18 L100 18 L82 30 Q77 14 70 12 Q65 12 60 86 L52 94 L38 82 Q33 82 32 90 Q40 101 48 147 L50 147 L56 141 L56 129 L50 104 Q67 104 72 76 L70 76 Q73 62 76 62 L80 137 L78 149 L82 149 L84 141 L82 141 L84 139 L84 64 L86 64 Q110 73 130 96 Q104 96 104 110 Q93 154 84 157 L82 157 L82 171 L86 175 ZM140 161 L140 159 Q147 152 147 143 Q152 129 161 129 L181 157 L183 157 L175 165 L173 163 L173 161 L151 165 L140 161 ZM112 133 L114 127 Q126 135 138 135 L138 147 L134 153 L134 155 L138 161 L136 161 Q112 150 112 133 ZM120 115 L122 113 L122 108 L120 102 L122 102 Q140 106 140 111 L140 125 Q127 125 120 115 ZM122 76 L124 76 L136 86 L134 86 L122 76 ZM138 56 L140 56 L181 64 Q193 59 193 52 Q189 41 169 20 Q171 14 181 14 Q203 14 211 42 Q221 64 221 74 Q221 80 195 82 L185 82 Q138 82 138 56 ZM86 52 L86 44 L90 40 Q90 51 104 64 L102 64 Q88 58 86 52 Z" /><glyph glyph-name="uni7247" unicode="&#x7247;" d="M124 197 L129 197 Q136 197 139 172 L137 170 L137 168 L139 159 L133 130 L135 130 L156 138 L160 138 Q163 138 163 132 L118 77 L120 77 Q188 109 192 117 L198 117 L205 109 Q183 83 158 83 L163 62 L162 8 L165 -12 L154 -22 L152 -22 Q148 -22 148 -16 L150 7 L148 8 L148 10 L152 27 L150 29 L152 43 L152 48 Q152 73 144 77 L101 58 L97 58 L93 62 L93 65 L143 121 L141 121 L124 117 L120 122 Q127 146 127 159 L125 193 L120 189 L118 191 L118 193 L124 197 ZM63 126 L68 126 Q77 126 87 100 Q89 124 95 124 L97 124 L89 81 L91 71 Q87 31 78 31 L74 37 L74 46 L78 73 L76 75 L78 84 Q72 117 67 117 L65 115 L61 115 L57 119 L57 121 L63 126 Z" /><glyph glyph-name="uni98D8" unicode="&#x98d8;" d="M68 188 Q95 185 95 178 L95 175 L87 165 L84 165 L80 169 L84 173 L82 175 Q63 181 63 184 Q63 188 68 188 ZM68 154 L80 154 L86 148 L120 154 Q131 152 131 148 L131 142 Q118 119 95 110 L97 108 L97 106 Q96 98 78 85 L80 85 L97 91 L101 87 Q107 87 124 110 Q129 110 152 127 Q172 133 186 144 L194 138 L194 135 Q185 123 181 76 L186 62 L184 53 Q199 32 228 32 L234 34 Q234 41 215 70 L215 74 L217 74 L253 42 L257 30 L257 28 L253 23 L243 24 L224 23 Q173 31 173 62 L160 66 Q152 49 146 47 L139 47 L133 53 L133 55 Q146 55 146 64 L150 70 L133 74 Q129 32 120 32 L114 36 L124 83 L124 95 L122 95 Q105 81 105 76 L106 68 Q87 54 87 51 L93 32 L93 26 Q93 10 78 -6 Q59 -6 59 7 Q59 19 74 47 L74 51 L36 38 L36 40 L34 38 L32 38 L25 45 Q25 49 42 49 Q91 69 91 76 L89 76 L51 61 L49 61 L44 66 L70 89 L68 89 Q57 78 49 78 L46 81 L46 83 Q67 104 67 112 L67 114 L65 114 L57 100 L55 100 Q50 100 46 123 Q37 120 32 112 Q43 104 48 95 L48 93 L42 87 Q20 111 0 127 L0 129 L4 133 L6 133 L21 123 L25 123 L42 133 L42 150 L46 150 Q49 150 53 138 L55 138 L68 154 ZM65 142 L67 142 L74 144 L74 148 L70 148 L65 142 ZM82 116 Q101 116 118 142 L116 144 Q82 144 82 116 ZM61 127 L61 125 L65 121 L70 121 Q74 121 76 133 L74 135 Q61 130 61 127 ZM133 99 L135 89 L135 83 L154 81 L152 102 L154 104 L156 104 Q162 104 165 83 L165 76 L169 76 L171 74 L173 76 L177 127 L175 127 Q151 118 143 108 L133 99 ZM78 40 L74 7 L78 7 L84 28 Q82 40 78 40 Z" /><glyph glyph-name="uni5176" unicode="&#x5176;" d="M143 194 Q158 177 158 152 L158 150 L177 152 L181 148 Q181 144 164 135 L162 122 L164 120 L164 118 L162 108 L164 106 L162 93 L162 70 L160 68 L160 66 L162 66 L198 74 Q215 70 215 66 L209 59 L206 59 L206 61 Q155 58 152 47 L141 49 Q53 21 44 21 Q27 27 27 34 Q31 43 35 44 L37 44 L33 38 Q37 30 44 30 Q54 30 128 55 L128 57 L113 57 L113 59 L126 70 L122 95 L124 95 L122 97 L122 99 Q122 113 132 122 Q145 118 145 95 L139 66 L145 63 L147 63 Q153 63 154 106 L154 125 L152 135 Q139 133 118 120 L120 118 L120 116 Q114 70 107 70 L105 70 Q97 70 95 99 L97 112 Q80 118 80 122 L84 125 L92 123 L97 125 L97 139 Q97 152 101 160 L99 167 L103 167 L111 160 L111 152 L107 137 L107 127 Q138 144 147 144 L151 150 L151 152 Q151 166 135 190 L135 192 L143 194 ZM109 118 L105 93 Q110 93 114 118 L109 118 ZM128 99 L133 84 L135 97 L133 108 Q129 108 128 99 ZM175 36 Q195 36 208 4 L208 2 L204 -2 L202 -2 L171 34 L173 36 L175 36 ZM95 28 Q99 28 99 19 Q105 11 122 11 L128 13 L130 11 L130 8 L124 2 L114 2 Q92 2 92 25 L95 28 Z" /><glyph glyph-name="uni8D77" unicode="&#x8d77;" d="M80 174 L82 174 Q89 174 97 145 Q114 145 114 141 L101 128 L101 94 L122 105 L125 105 L129 102 L129 100 Q129 90 87 41 L89 41 Q119 56 137 58 L142 58 L148 52 L148 50 Q140 33 116 14 L114 12 L114 10 Q181 20 222 20 L222 18 L224 20 L226 20 Q256 19 256 12 L251 5 L205 8 L194 8 Q171 8 91 -3 Q84 0 84 3 L84 5 L104 16 Q128 35 135 48 L133 48 Q103 41 66 18 L63 18 L59 22 L59 24 Q108 79 108 86 Q42 48 25 48 L17 54 L17 56 L25 64 L34 62 Q84 78 85 90 L85 88 L91 90 L89 113 L91 115 L91 117 L89 122 L76 121 L72 121 L66 126 Q66 130 84 132 L87 138 Q72 149 72 159 Q74 174 80 174 ZM150 132 L175 132 Q190 130 190 119 L186 100 L198 96 Q196 88 177 81 Q177 75 161 75 L161 73 L163 64 L161 64 Q165 52 169 52 L188 52 L194 56 L201 56 L205 52 Q201 41 184 41 L179 41 Q150 41 150 67 L146 88 L152 90 L160 86 Q172 86 179 119 L179 121 L173 122 L150 119 L146 124 L146 128 L150 132 Z" /><glyph glyph-name="uni5DE7" unicode="&#x5de7;" d="M166 165 Q170 165 170 160 Q157 145 137 80 L137 78 Q188 110 204 110 Q227 110 227 85 Q204 0 189 0 L173 -2 Q153 -2 147 13 L152 17 L160 11 L190 11 Q215 70 215 91 L215 95 Q213 101 204 101 L200 101 Q161 92 126 51 L120 57 L149 148 L132 144 Q127 144 114 160 L118 163 L122 163 L133 156 L166 165 ZM90 118 L94 112 L94 108 Q94 87 76 57 L76 53 Q101 76 107 104 L111 104 Q111 74 75 36 L69 36 Q64 36 63 46 Q82 94 82 103 L80 103 Q56 89 46 89 L35 89 Q27 93 27 101 L29 101 L35 99 Q55 99 90 118 Z" /><glyph glyph-name="uni8F7B" unicode="&#x8f7b;" d="M74 172 Q84 167 84 156 L84 150 L108 133 L102 127 L88 129 Q81 129 72 87 L74 87 L88 95 L86 105 L86 107 L92 113 L94 113 L104 103 L116 105 L120 99 Q120 93 112 93 L112 89 L122 87 Q130 113 142 135 L140 141 Q153 162 158 164 L175 164 L181 158 L181 154 Q171 141 162 137 L160 137 L164 152 L158 152 Q138 132 138 109 L142 105 L140 99 L142 99 L173 117 L164 127 L167 131 L187 119 L209 121 L209 119 L211 121 L221 121 L223 119 L225 121 L227 121 Q239 117 239 113 Q239 109 227 105 L221 107 L213 105 L189 109 L191 93 L189 77 Q207 73 207 61 L183 28 L183 26 Q213 32 217 38 Q243 37 243 30 L233 22 L223 24 Q180 16 164 6 Q156 9 156 12 L156 14 Q195 50 195 65 L193 67 L189 67 L165 34 L162 34 Q146 34 144 48 Q144 61 175 73 Q181 74 181 89 L181 97 L179 107 Q138 96 138 75 L134 75 L128 79 Q106 0 98 0 L96 0 Q92 0 92 6 L96 51 Q48 24 25 24 L19 30 Q21 35 57 57 L59 59 L59 61 L55 67 L55 71 Q70 106 70 127 L57 135 L55 137 L55 143 L57 143 L72 141 L72 152 Q67 160 67 166 L74 172 ZM45 42 L45 40 L49 40 Q84 55 96 65 L94 79 L45 42 ZM106 42 L106 40 Q110 40 118 67 Q106 67 106 42 ZM158 51 L158 44 L160 44 Q171 52 171 63 Q162 60 158 51 Z" /><glyph glyph-name="uni53BB" unicode="&#x53bb;" d="M109 200 L111 200 Q137 200 141 139 L158 123 Q155 116 152 116 L147 119 L141 119 L141 108 L145 88 L137 82 Q130 92 98 92 L98 94 Q98 99 127 104 L129 119 Q125 123 113 123 L100 133 L103 137 L127 133 L127 135 L129 153 Q129 178 115 186 L113 186 L113 184 L119 163 L115 163 L105 194 L105 196 L109 200 ZM213 102 L221 96 L221 92 Q221 87 184 78 L113 20 L113 18 Q175 33 176 37 L176 39 L174 49 L176 51 L182 51 Q204 21 205 8 L205 4 L201 0 L199 0 L186 25 L107 6 L105 6 Q95 6 94 12 L94 14 L174 80 L172 80 Q88 47 54 47 Q35 47 29 59 L29 61 Q29 65 64 82 L66 80 L66 78 L45 63 L45 59 L56 57 Q82 57 209 102 L213 102 ZM88 92 L94 92 L90 88 L88 88 L88 92 Z" /><glyph glyph-name="uni5168" unicode="&#x5168;" d="M110 207 L112 197 L112 195 Q112 165 78 90 L58 60 L56 60 L52 64 L52 68 L54 78 L56 78 L58 76 L60 76 Q104 166 104 205 L106 207 L110 207 ZM126 176 Q129 176 184 118 L212 108 L237 108 L243 100 Q240 92 237 92 L224 92 Q199 92 186 106 Q163 115 122 172 L122 174 L124 176 L126 176 ZM106 118 L108 118 Q138 118 142 76 Q153 76 160 64 Q160 45 124 10 Q166 18 176 24 L178 24 L184 18 Q184 6 98 -4 L96 -2 L96 2 Q148 38 148 62 L136 66 L134 66 Q113 24 90 24 Q81 27 76 36 Q76 68 128 78 L128 84 Q126 106 112 106 L106 104 L100 112 L106 118 ZM90 40 L90 34 L96 34 Q110 42 122 62 L122 66 Q92 66 90 40 Z" /><glyph glyph-name="uni7136" unicode="&#x7136;" d="M79 173 L81 173 L85 169 L83 167 L85 165 L85 150 L77 125 L79 125 Q88 131 100 131 Q117 131 119 110 Q151 119 151 125 L151 127 Q151 138 144 148 L144 150 Q144 154 150 154 Q161 149 161 141 L165 141 L172 143 L178 141 L189 143 L191 141 L191 137 Q189 131 159 114 L150 82 L157 82 Q173 91 186 91 L189 91 L195 86 L195 82 Q105 34 56 17 L49 17 L87 34 L93 40 Q82 40 77 51 L77 59 Q77 73 110 106 L110 108 Q108 122 98 122 L66 108 L62 112 L79 173 ZM212 160 Q227 143 227 133 L222 127 L218 127 Q214 127 214 133 L216 139 Q211 139 208 158 L210 160 L212 160 ZM163 133 L161 131 L161 127 L165 127 L169 131 L163 133 ZM113 70 L115 68 L110 46 L112 46 L161 70 L161 72 L159 72 L148 70 L144 70 L138 76 L138 80 L148 110 L146 110 Q119 105 119 93 Q117 70 113 70 ZM91 55 L100 49 L108 93 Q98 93 91 59 L91 55 ZM193 40 L195 40 Q215 40 237 19 L237 17 L231 11 Q210 14 210 25 Q210 30 180 32 L180 38 L193 40 ZM169 32 L170 29 L153 11 L151 11 L117 25 L117 29 L123 29 L155 21 Q155 24 169 32 ZM30 23 Q65 10 81 10 L100 21 L102 19 L102 17 L83 0 L75 0 Q26 7 26 17 L26 19 L30 23 Z" /><glyph glyph-name="uni4EBA" unicode="&#x4eba;" d="M136 143 L142 137 L142 135 Q115 102 47 32 L45 32 L45 36 Q107 109 123 135 Q127 135 127 141 L129 143 L136 143 ZM119 73 Q181 55 236 44 L240 38 L240 36 Q240 32 234 32 Q221 38 168 46 Q142 55 121 69 L119 69 L119 73 Z" /><glyph glyph-name="uni5982" unicode="&#x5982;" d="M86 186 Q101 186 109 125 L105 104 L107 104 Q127 115 136 115 Q146 111 147 106 L141 58 L147 58 L244 89 L250 79 Q244 58 185 22 L180 26 L180 28 Q214 52 233 73 L235 73 L235 77 L233 77 Q147 45 134 45 L128 56 L134 94 L134 104 L128 104 Q94 89 94 70 L92 64 L94 56 L94 52 Q94 45 82 45 Q65 20 42 20 Q27 24 27 37 Q27 56 52 75 L33 100 L33 104 L38 108 Q61 83 65 83 Q84 91 84 98 L82 123 L86 123 Q86 96 92 96 L98 119 L96 121 L96 138 Q92 173 77 173 L77 178 L86 186 ZM69 73 L77 66 L82 66 L84 81 L80 81 L69 73 ZM42 37 Q45 28 48 28 L52 28 Q73 44 73 56 L59 66 L56 66 Q48 66 42 37 Z" /><glyph glyph-name="uni6563" unicode="&#x6563;" d="M118 186 L120 186 Q129 181 129 170 L127 142 L131 138 L131 136 Q112 114 112 102 Q145 102 159 154 L157 166 L163 170 L165 170 Q171 168 171 158 L171 156 L169 150 L171 140 L171 132 L169 120 Q169 106 179 106 Q219 85 219 63 L219 61 L215 45 Q239 16 239 -11 L237 -11 Q232 -11 231 3 Q212 35 205 39 L171 29 L171 31 L169 29 Q133 36 133 63 Q141 81 163 81 Q182 78 205 57 L207 57 L209 65 Q193 99 169 99 Q159 106 159 134 L157 134 Q157 129 145 112 L151 104 Q151 102 131 93 L124 75 L129 23 L127 23 L129 21 L129 19 Q129 12 112 5 Q103 8 100 15 L100 29 L116 81 L110 85 Q100 85 90 15 Q90 5 86 5 L84 5 Q78 7 78 17 L78 25 Q78 35 94 77 L92 77 L84 71 L82 71 L80 73 Q47 55 26 55 L24 55 L14 63 L14 65 L18 69 L24 65 Q41 65 82 85 Q76 105 76 120 L66 120 Q63 120 60 128 Q74 130 74 134 L64 156 L68 160 L70 160 Q85 144 94 144 L96 144 L102 156 L106 156 L106 144 L116 144 L118 164 L118 174 Q115 174 112 166 L110 164 L108 164 L108 166 Q112 186 118 186 ZM92 95 L94 93 L96 93 Q110 118 110 124 L110 130 Q94 130 94 97 L92 95 ZM86 126 L86 112 Q90 112 92 126 L86 126 ZM118 87 L118 85 L122 85 L124 91 L122 91 L118 87 ZM141 63 Q151 37 171 37 Q180 37 197 45 L197 49 Q184 67 157 73 Q147 70 141 63 ZM116 59 L110 23 L112 17 L114 17 L120 23 L118 25 L118 31 L120 31 L118 59 L116 59 Z" /><glyph glyph-name="uni95EA" unicode="&#x95ea;" d="M78 178 Q91 178 101 157 L96 154 L75 176 L78 178 ZM173 159 Q192 159 198 95 Q202 75 206 -4 L200 -8 L198 -8 Q177 -8 141 32 L145 36 Q156 24 191 9 L192 7 L192 24 L191 32 L192 34 L192 41 L191 43 L191 45 Q185 146 172 146 L166 148 Q158 148 118 131 L116 131 L116 133 Q140 159 173 159 ZM59 116 L63 100 L59 74 L61 49 L54 43 L48 49 L48 66 Q52 112 59 116 ZM120 114 L132 106 Q132 90 118 74 Q152 74 173 57 L173 55 L170 51 Q159 51 116 72 L94 47 L90 51 Q122 92 122 104 L118 108 L118 110 L120 112 L120 114 Z" /><glyph glyph-name="uni4E0A" unicode="&#x4e0a;" d="M99 171 L102 171 Q127 171 133 107 L148 107 Q176 95 176 90 Q176 81 133 65 Q133 42 127 42 L125 42 L119 48 L118 57 L74 36 L74 34 L83 34 Q107 34 205 57 L213 57 Q222 57 222 50 L221 44 L211 42 L199 42 L195 46 Q113 23 76 23 L74 23 Q51 23 51 31 L51 33 L87 48 L119 67 L123 101 L123 105 Q123 139 99 169 L99 171 ZM137 95 L133 72 L135 72 Q154 86 159 86 L159 90 L137 95 Z" /><glyph glyph-name="uni4F38" unicode="&#x4f38;" d="M157 199 Q178 195 178 130 L180 130 L207 132 Q218 130 218 126 L218 123 Q218 115 178 68 L171 28 L172 26 L169 -22 L169 -33 L165 -37 Q161 -37 161 -31 Q161 21 165 52 L165 54 L163 54 Q163 47 140 35 Q133 38 133 41 L152 60 L152 62 Q133 67 133 73 Q133 92 169 106 L169 117 L167 117 Q143 117 112 104 L110 94 L121 69 L121 66 L114 58 Q106 64 89 98 L87 98 Q76 45 68 45 L64 45 L60 49 L60 77 Q60 100 51 100 L36 90 L32 90 L28 94 Q45 129 45 138 L43 144 L49 147 L51 147 L57 142 L57 138 L47 107 L53 107 Q70 107 70 81 L70 75 L72 75 Q76 78 87 109 L93 109 L100 104 Q105 120 169 128 L169 130 Q169 160 161 182 L159 180 L155 180 L150 195 L157 199 ZM178 113 L188 96 Q200 106 205 121 L193 121 Q179 121 178 113 ZM148 79 L148 73 L157 71 L161 71 Q167 73 167 83 L167 94 Q156 94 148 79 Z" /><glyph glyph-name="uni751F" unicode="&#x751f;" d="M119 193 L123 193 Q134 193 142 152 Q158 139 173 138 L184 140 L192 134 L192 132 L186 126 L167 128 Q142 122 142 117 L142 103 L140 94 Q155 94 155 79 Q155 66 127 26 L136 26 L165 28 L165 30 L161 39 L163 41 L165 41 L201 28 L201 26 Q201 21 192 18 L178 21 Q142 14 119 14 L117 14 L112 20 Q112 25 127 44 L108 63 Q108 75 131 92 L133 118 L131 118 Q100 113 72 79 L70 79 Q64 79 49 128 L55 128 Q62 124 72 97 L74 97 Q89 113 133 131 Q133 170 116 187 L116 189 L119 193 ZM144 142 L144 132 L152 132 L152 138 L144 142 ZM138 79 L135 59 L136 57 L142 75 L142 79 L138 79 ZM121 65 L121 60 Q126 60 127 76 Q121 75 121 65 Z" /><glyph glyph-name="uni65F6" unicode="&#x65f6;" d="M164 180 Q172 177 190 130 Q203 123 219 121 L219 117 Q219 112 196 107 L194 105 L194 52 L196 41 Q192 -20 184 -20 Q180 -20 171 5 L171 7 L175 10 L177 10 Q181 10 181 5 L183 5 L184 14 L184 33 L186 35 L184 37 L186 56 L184 64 L186 66 L184 75 L184 98 L183 100 L183 102 Q150 90 139 90 Q148 61 148 48 L143 45 Q137 45 131 81 L127 85 Q115 83 103 75 L108 35 L103 31 L89 41 L80 31 L78 31 L72 37 L78 60 L67 86 Q67 98 76 104 L82 104 L88 100 L91 104 L91 132 L69 124 L65 130 Q81 143 105 143 L108 138 Q101 129 101 107 L101 94 Q101 85 105 85 Q126 98 164 105 Q169 110 183 111 Q182 127 171 138 L171 140 L177 140 Q170 164 154 174 L154 178 L156 180 L164 180 ZM44 117 Q59 117 63 90 L63 62 Q63 51 53 47 L48 52 L51 86 L53 88 Q52 101 40 113 L44 117 ZM76 94 L76 85 Q77 73 82 73 L82 90 L78 94 L76 94 Z" /><glyph glyph-name="uni4EC0" unicode="&#x4ec0;" d="M143 177 L147 177 Q161 177 167 111 Q189 119 222 120 L224 118 L224 114 L222 108 L212 108 Q174 103 169 99 L171 67 L169 -27 L167 -29 L163 -29 L161 13 L161 55 L159 95 L157 95 L148 92 Q141 88 105 76 L105 78 Q108 87 157 107 Q153 145 145 169 Q142 169 139 155 L137 155 L135 157 L135 163 Q135 174 143 177 ZM57 123 Q62 123 65 107 L59 83 L59 81 Q85 78 85 57 L87 57 Q87 63 95 67 L95 65 Q88 59 85 27 L83 25 L81 25 Q75 25 75 47 Q71 71 65 71 L63 71 L45 57 L41 65 Q55 104 55 117 L51 121 L53 123 L57 123 Z" /><glyph glyph-name="uni5B9E" unicode="&#x5b9e;" d="M107 199 Q127 191 131 183 L131 177 L119 165 L117 167 L115 167 L121 179 Q111 184 103 195 L107 199 ZM189 159 Q202 155 203 149 L203 145 Q199 131 159 111 L155 111 L151 115 Q191 138 191 149 L189 149 Q151 149 97 123 L91 123 L91 125 Q101 140 159 155 L189 159 ZM59 145 Q81 133 81 75 L81 71 L75 63 L73 63 L67 69 L69 79 Q69 139 49 139 L49 143 L59 145 ZM105 123 Q120 113 125 103 Q125 95 111 81 Q124 76 125 71 L125 63 L105 43 L105 47 L113 61 L113 69 Q103 69 103 83 L115 97 Q101 116 101 121 L103 123 L105 123 ZM139 123 Q146 123 149 103 Q169 97 169 83 Q169 63 143 43 Q128 -1 115 -7 L109 -7 L103 1 L105 3 L107 3 L113 1 Q125 20 125 27 L123 27 L103 17 Q94 21 93 25 L93 29 L97 33 L105 29 Q137 44 137 67 L137 83 L135 93 L137 93 L133 121 L135 123 L139 123 ZM83 121 L87 121 L87 117 L83 113 L79 117 L83 121 ZM151 85 L145 59 L147 59 Q161 69 161 77 Q157 77 157 83 L155 85 L151 85 ZM181 27 Q201 18 223 -9 L223 -11 L221 -13 L215 -13 Q185 11 181 21 L181 27 Z" /><glyph glyph-name="uni4E8B" unicode="&#x4e8b;" d="M117 210 Q134 203 134 200 L130 196 L128 198 L126 198 L126 196 Q128 181 134 181 Q134 186 157 187 L160 181 Q160 174 136 170 L134 168 L134 154 L136 153 L136 151 L151 154 L157 154 L160 151 L160 147 Q157 139 139 132 L138 130 L138 122 L166 128 Q187 122 187 115 L198 115 L202 111 Q199 101 179 92 L170 80 L172 78 L179 78 L193 80 L196 75 Q196 71 145 50 Q145 46 139 46 L138 -5 L138 -20 L130 -28 Q126 -28 124 -18 L126 -17 L126 -15 L124 -13 L124 -11 L128 6 L128 39 L126 39 Q114 29 105 29 L101 29 L96 35 L126 61 L126 65 L117 65 L56 44 L52 50 L52 52 Q73 68 126 88 L126 105 L120 105 Q102 93 75 82 L69 90 Q78 102 124 130 L126 135 L124 135 L96 120 L86 118 L84 120 L84 124 L117 162 L117 164 L103 162 L92 162 Q81 162 79 172 L81 173 L90 172 L92 172 L120 177 L113 208 L115 210 L117 210 ZM111 141 L115 141 L124 145 L124 154 L122 154 Q114 150 111 141 ZM138 109 L138 94 Q170 103 172 109 L172 115 L158 118 Q138 114 138 109 ZM138 80 L138 75 L145 73 L160 88 L160 90 L158 90 Q138 85 138 80 Z" /><glyph glyph-name="uni662F" unicode="&#x662f;" d="M149 196 Q156 196 168 181 L168 174 Q160 108 142 107 Q142 110 130 115 Q130 103 117 103 Q87 78 71 73 L71 71 L73 71 L204 124 L208 119 L208 117 Q208 112 168 100 L155 92 Q159 88 159 69 L182 82 L184 82 L189 77 Q189 73 170 62 Q163 62 161 18 L159 16 L155 16 L149 22 L149 56 Q101 22 100 6 L109 5 L111 6 L113 6 L115 5 Q166 16 191 16 Q199 16 203 8 L199 3 L185 5 L174 5 L117 -5 L108 -5 Q93 -5 89 5 Q89 17 149 67 L147 73 L149 75 L149 77 L147 88 Q141 88 83 63 L58 56 L47 56 L41 62 Q43 66 96 94 Q115 111 115 115 L113 120 L115 122 L117 122 Q109 181 98 181 L90 176 L87 179 L87 181 L92 187 L111 183 Q118 196 149 196 ZM115 177 L121 160 L123 160 Q123 165 136 172 L140 172 Q153 172 153 162 L157 162 L157 176 Q157 187 146 187 Q115 184 115 177 ZM127 155 L127 151 Q129 132 134 132 Q139 132 146 155 Q142 155 142 160 L136 162 Q127 159 127 155 ZM138 122 L140 120 L142 120 Q146 120 149 136 L138 122 Z" /><glyph glyph-name="uni624B" unicode="&#x624b;" d="M102 180 Q108 166 116 166 L159 174 L163 168 L142 143 Q144 131 148 130 L165 134 L167 134 L171 130 L171 128 Q171 124 154 115 L155 90 L157 90 L220 100 Q233 97 233 92 L228 86 L216 90 Q155 83 155 75 L155 50 L154 48 L155 47 Q145 -20 138 -20 Q131 -20 131 5 Q141 5 146 67 L146 69 L142 77 L43 48 Q33 48 30 56 L30 58 Q34 67 49 67 L53 67 Q57 67 57 62 Q131 83 144 90 Q144 115 136 115 Q127 109 117 109 L110 109 L104 115 L104 119 Q125 140 125 143 L123 149 L129 151 L135 149 L144 161 L140 161 L119 155 Q109 155 98 178 L100 180 L102 180 ZM119 123 L119 121 Q136 124 136 128 L135 134 L131 134 L119 123 Z" /><glyph glyph-name="uni8C01" unicode="&#x8c01;" d="M123 190 L125 188 L125 186 Q125 179 113 165 L115 162 L128 167 L132 167 L136 163 L136 160 Q128 154 123 116 Q139 135 163 150 L151 181 L153 182 L163 182 Q170 156 193 156 L193 152 L189 148 L185 148 L183 150 L174 143 L176 141 L176 139 L174 137 L174 135 L182 106 Q172 89 172 78 L172 74 L174 72 L174 70 L193 76 L197 76 Q204 72 204 67 Q204 59 159 25 L161 23 L163 23 Q186 29 218 29 L221 32 L225 32 Q244 26 244 21 L239 13 Q228 13 216 21 L145 11 L138 17 L138 21 Q156 31 191 61 L191 63 L189 65 L189 67 Q173 67 164 46 L161 46 Q145 55 145 72 Q145 98 166 122 L164 143 Q121 117 121 82 L119 48 L123 23 Q121 0 117 0 L113 0 Q107 0 107 25 L107 32 L117 152 L115 152 Q102 152 102 160 L102 169 Q108 190 119 190 L123 190 ZM60 156 L64 156 Q90 146 90 139 L85 133 Q76 133 60 156 ZM66 108 Q71 108 77 97 L73 57 Q82 60 96 108 L100 108 Q81 29 71 29 Q64 31 64 48 L66 97 L62 97 Q56 97 26 80 L24 80 L20 84 Q28 97 66 108 ZM155 86 L157 78 L159 78 L164 103 L164 106 Q157 104 157 86 L155 86 Z" /><glyph glyph-name="uni601D" unicode="&#x601d;" d="M158 172 Q167 172 177 159 L147 79 L141 75 L129 81 Q121 78 84 39 L107 41 L148 28 L150 30 L160 30 L162 28 L181 33 Q181 39 148 52 L129 50 L126 60 Q148 60 171 77 L173 77 L158 56 Q192 48 192 37 L194 37 Q194 25 181 20 L169 18 L156 18 Q141 18 103 31 L99 31 Q66 31 53 5 L48 1 Q43 1 42 9 Q42 16 101 68 L99 77 L103 94 L90 96 L90 94 L93 71 L86 66 Q79 66 76 104 Q71 107 67 125 L69 126 Q53 145 48 145 L48 147 L52 151 Q69 151 88 100 L114 121 L112 123 L112 125 L116 128 L114 130 L114 132 Q114 142 118 142 L135 128 L135 126 L118 107 L118 104 L126 98 L131 100 L141 96 L141 98 L156 130 L154 132 Q157 132 162 145 L160 147 L164 151 L164 159 L156 161 L95 144 L84 144 L84 151 L158 172 ZM209 92 Q226 84 230 77 Q227 69 224 69 L215 69 L211 73 L213 75 L213 77 Q208 83 190 83 L188 85 L188 87 Q197 92 209 92 Z" /><glyph glyph-name="uni7D22" unicode="&#x7d22;" d="M115 215 Q135 212 151 190 L151 188 L138 173 L140 171 L138 162 L138 147 L142 143 Q156 149 208 156 Q225 153 225 145 Q211 111 144 109 L121 92 L123 92 L153 105 L161 99 L161 97 Q128 72 128 61 Q141 36 183 36 Q220 31 220 17 L204 10 L204 12 L206 23 L201 23 L182 25 L182 23 L183 21 L183 19 Q183 -1 128 -13 L128 -11 L125 -13 Q108 -5 107 -2 L107 6 Q107 23 140 36 Q117 48 117 63 L117 65 Q117 71 123 78 L123 82 L107 78 L98 84 Q98 90 136 120 L138 120 Q145 114 151 114 Q184 114 212 143 L212 145 L202 145 Q147 139 134 130 L132 128 Q123 128 123 131 Q69 113 69 92 L75 86 Q72 78 69 78 Q41 105 39 124 Q41 133 45 133 L56 133 L50 122 Q55 105 60 105 Q85 126 113 135 Q113 139 107 139 L106 141 L106 145 L119 147 L126 147 L128 166 L128 168 L126 168 L111 158 Q98 160 98 164 L117 173 L126 181 L126 183 Q124 206 111 206 L111 211 L115 215 ZM134 196 L134 192 L138 187 L144 188 L144 194 L134 196 ZM134 23 L132 25 L130 25 Q119 15 119 0 L121 0 L132 -3 L136 -3 Q151 -3 170 17 Q170 24 149 27 L140 27 L134 23 Z" /><glyph glyph-name="uni5B83" unicode="&#x5b83;" d="M98 198 L110 198 Q131 191 131 177 L121 171 Q119 187 108 187 L100 192 L98 194 L98 198 ZM178 160 Q195 156 195 151 Q173 124 155 120 L153 122 L153 124 Q158 124 178 147 L178 149 L176 149 Q75 124 75 97 L77 90 Q77 73 66 73 L62 84 L64 84 L62 86 L62 88 L64 90 L64 92 Q64 106 45 152 L47 152 Q66 134 66 116 L144 152 L172 158 L174 156 L178 160 ZM151 99 L157 94 L157 86 Q154 65 123 33 L121 33 L115 35 L115 33 L113 21 L113 19 L125 18 L134 19 L136 18 L138 18 L146 19 L148 19 L151 18 Q151 22 188 29 L188 33 L184 38 L184 40 Q184 44 189 44 Q218 34 218 29 L218 23 L214 19 L197 19 L138 8 L108 8 L100 16 Q102 37 106 37 L104 38 L104 46 L106 48 L104 50 L104 52 L106 61 L104 71 L106 71 L102 80 L104 82 L96 95 L104 95 Q115 88 115 59 L115 50 L127 48 L127 50 Q133 50 150 94 L151 99 Z" /><glyph glyph-name="uni5929" unicode="&#x5929;" d="M108 161 Q126 161 157 146 L161 135 Q161 129 138 123 L136 125 L136 127 L148 137 L148 139 Q100 156 100 160 L102 161 L108 161 ZM104 129 L106 129 Q127 114 127 93 L130 93 Q168 110 193 110 L195 110 L201 104 L193 99 L191 101 Q125 88 125 70 Q114 11 92 11 Q87 13 85 19 L89 28 L92 28 Q96 28 96 23 Q106 29 115 74 L113 74 Q75 57 51 57 L49 57 L43 70 L58 78 L60 76 L60 72 L58 70 L58 68 L60 66 L62 66 Q109 81 115 89 Q115 110 104 125 L104 129 ZM167 66 Q193 44 212 6 L214 0 L212 -2 L206 -2 Q202 0 163 65 L165 66 L167 66 Z" /><glyph glyph-name="uni5934" unicode="&#x5934;" d="M112 185 L116 185 Q137 168 137 151 Q141 151 141 140 L143 128 L145 127 L147 127 L145 117 L147 108 L145 90 L145 83 L147 83 L175 90 L175 92 L164 106 L164 108 Q172 108 185 98 L186 100 L188 100 L190 98 L192 98 L221 102 L224 96 L224 94 Q224 89 185 85 Q139 73 139 58 L129 35 Q118 18 101 9 Q91 11 91 14 L91 20 L103 32 L107 32 L105 22 L107 22 Q119 22 131 64 L131 66 L129 66 Q69 45 38 45 Q28 45 23 54 Q24 61 55 75 Q67 83 101 94 L103 96 L103 98 Q73 98 72 109 Q72 112 91 119 Q110 126 110 132 Q77 142 72 147 L72 149 L76 153 Q118 145 118 130 L116 130 L118 127 Q111 118 97 111 L97 109 L124 109 L129 104 L129 100 Q96 89 82 75 Q74 75 38 58 L38 56 L44 56 Q75 56 135 79 L139 100 Q139 143 112 182 L112 185 ZM175 45 Q190 45 211 11 L211 9 L204 3 L175 43 L175 45 Z" /><glyph glyph-name="uni7A81" unicode="&#x7a81;" d="M116 197 Q116 193 140 190 L140 182 Q137 175 127 175 L125 176 L127 178 L127 180 Q104 187 101 194 L116 197 ZM171 175 L177 167 Q177 161 148 135 Q155 129 165 129 L167 131 L169 131 Q177 129 177 119 Q146 105 127 91 Q128 74 133 74 Q161 83 161 89 L165 93 L182 93 L192 91 L192 85 Q192 81 167 76 L129 61 Q116 19 101 11 L93 5 Q83 5 82 11 L83 17 L91 13 Q116 33 116 55 L112 55 Q70 36 59 36 L53 43 Q60 53 102 80 L104 80 L104 78 L83 55 Q115 66 121 72 L120 74 L120 76 L121 78 L112 108 Q121 108 131 102 Q152 115 152 119 Q145 119 135 137 L123 137 L123 140 L129 140 L137 142 L144 140 L163 163 L163 165 Q87 148 87 127 L87 123 L89 123 Q92 123 95 131 L97 133 L102 133 L102 131 Q93 87 87 87 L82 93 L85 112 L83 112 Q71 133 53 148 L53 154 L55 154 Q63 154 80 137 Q123 175 171 175 ZM199 121 Q212 110 218 95 L215 89 Q203 89 196 119 L197 121 L199 121 ZM154 42 Q183 18 196 0 L190 -6 Q186 -6 150 38 L154 42 Z" /><glyph glyph-name="uni5916" unicode="&#x5916;" d="M128 183 Q146 174 154 143 Q161 91 166 91 L230 76 L230 74 L227 71 L164 80 Q164 37 170 -11 L164 -15 Q149 -4 149 34 L151 34 L156 31 Q156 90 145 90 Q135 91 135 95 L143 101 L151 99 L152 101 L137 164 L133 164 Q133 155 99 116 L99 114 L103 97 Q103 67 78 29 L76 29 Q56 32 56 46 Q65 77 86 109 L82 109 Q74 109 52 90 L48 90 L46 91 L46 93 L75 164 L71 167 L73 169 L75 169 Q80 169 82 152 L65 112 Q74 118 90 118 L92 116 Q130 160 130 164 L124 173 L124 179 L128 183 ZM71 42 L73 40 L75 40 Q92 71 92 103 Q71 80 71 42 Z" /><glyph glyph-name="uni5B8C" unicode="&#x5b8c;" d="M114 204 L118 204 L119 202 L121 204 L123 204 Q141 196 146 187 L146 177 Q144 172 135 172 L135 174 L138 183 L112 198 L114 204 ZM178 155 L178 153 L180 155 L182 155 L190 149 L190 145 Q190 133 140 113 L142 103 L106 67 L110 67 L165 94 L167 94 Q173 94 173 86 Q140 48 137 48 L137 46 Q148 38 148 29 Q159 10 169 10 Q218 10 237 29 Q230 40 224 98 L228 98 L252 25 Q220 -1 173 -1 Q149 -1 133 35 L129 35 Q120 33 83 -3 L78 -5 L74 1 L74 3 Q74 12 131 54 Q144 67 144 73 Q104 53 81 46 L76 48 L76 52 Q104 73 127 100 L127 103 Q120 103 112 115 L112 117 L114 120 L137 119 L140 119 Q153 119 173 141 L169 141 Q89 131 89 109 L85 101 L87 100 L87 98 Q83 86 78 84 L72 90 L72 98 Q72 128 51 149 L53 151 L59 151 Q75 139 81 117 L83 117 Q108 145 142 145 L178 155 Z" /><glyph glyph-name="uni5F80" unicode="&#x5f80;" d="M82 164 L85 159 L85 153 L70 121 L83 136 L85 136 L87 134 L89 134 Q89 89 53 7 L44 -3 L34 7 Q37 27 44 27 L45 26 L42 8 Q52 8 78 113 L78 117 L55 98 L49 98 L45 102 Q72 135 80 164 L82 164 ZM135 164 Q148 156 165 138 L165 134 L161 128 L154 132 Q143 130 135 122 L135 124 Q135 130 148 138 L131 162 L133 164 L135 164 ZM180 122 L184 117 L184 115 Q183 110 171 105 L175 83 L175 81 Q192 81 192 65 Q177 29 167 27 L167 24 L220 39 L218 41 L218 46 L222 50 L241 37 Q241 27 235 26 L230 29 L142 5 L140 5 L137 10 Q180 49 180 65 L180 69 L177 69 Q159 36 144 31 L127 31 L120 39 Q120 57 156 75 L165 77 L165 90 Q160 102 150 102 L120 96 L112 105 L123 117 Q127 117 127 109 L139 109 L180 122 ZM83 77 L85 77 Q94 77 99 37 L97 35 L97 33 L101 22 L101 12 L95 7 Q87 17 87 24 L87 35 Q87 60 82 71 L83 77 ZM135 43 L135 39 Q154 39 163 67 L161 67 Q135 62 135 43 Z" /><glyph glyph-name="uni5473" unicode="&#x5473;" d="M125 203 Q153 203 159 152 L180 152 Q184 152 184 146 Q184 141 163 129 L161 105 L163 105 L184 112 L182 114 L182 116 L184 118 L184 120 L197 118 L213 118 L216 114 Q216 108 167 97 L161 93 L163 91 L163 84 Q159 80 159 67 L157 67 L159 65 L157 55 L157 50 Q157 45 190 38 L207 40 L218 40 L224 34 L224 32 L220 29 L216 29 L211 31 L201 29 L192 29 Q178 29 159 36 L159 23 L163 12 L161 10 L161 8 L163 -7 Q159 -16 156 -17 L152 -17 Q133 -2 133 10 L133 34 Q129 34 110 8 L102 6 L99 10 L99 12 Q139 56 148 84 L148 88 L146 88 Q116 72 110 72 L106 72 L102 76 L102 78 Q137 112 144 112 L146 110 L146 108 Q140 97 135 97 L135 95 L140 95 L150 99 L150 126 L152 127 L148 139 Q97 125 97 91 L95 89 L97 88 L97 86 Q87 50 80 50 L74 55 Q85 90 85 101 L83 101 Q70 94 61 76 L64 59 L59 55 Q53 55 36 114 L32 114 L32 118 L34 118 Q48 118 55 91 L57 91 Q57 97 81 110 L87 112 L93 110 L93 112 Q106 137 144 148 L148 152 L148 160 Q142 160 137 171 L138 173 L146 167 L146 169 Q146 184 125 194 L125 203 ZM161 143 L161 137 L165 137 L167 143 L161 143 ZM140 48 L140 25 Q148 12 148 2 L150 2 L150 6 L152 6 L148 57 L140 48 Z" /><glyph glyph-name="uni6211" unicode="&#x6211;" d="M131 194 Q147 194 169 124 Q190 124 190 118 Q185 109 177 109 L177 101 Q185 42 190 42 Q207 73 207 92 L206 95 L204 86 L200 86 L200 90 L204 95 L202 101 L207 103 Q213 103 219 92 Q215 64 194 31 L194 29 L209 -24 L209 -28 L206 -32 Q193 -32 187 14 L185 16 L169 12 Q164 14 164 23 Q164 31 173 36 L175 31 L173 25 L175 25 L181 31 L181 35 Q167 101 160 109 Q116 97 116 86 L120 54 Q118 40 105 27 L97 27 Q87 27 86 33 L86 38 L105 86 L103 86 L35 52 L29 52 L25 55 Q32 63 97 95 L97 97 L84 112 L88 116 Q97 116 109 101 L111 101 Q118 101 147 158 Q147 171 126 187 L126 190 Q126 194 131 194 ZM196 179 L200 179 Q210 179 238 149 Q238 145 232 145 Q210 155 196 177 L196 179 ZM128 109 L130 109 L160 118 L150 154 Q147 152 128 109 ZM88 154 Q117 144 124 133 L124 128 Q124 123 103 116 L101 118 L101 120 L112 128 L112 131 Q83 147 82 150 L88 154 ZM99 46 L99 35 L101 35 Q108 35 111 55 L111 73 L109 73 Q104 73 99 46 Z" /><glyph glyph-name="uni60F3" unicode="&#x60f3;" d="M88 201 Q103 201 107 160 Q121 158 121 154 Q121 146 111 146 L111 144 L115 137 Q106 122 107 114 Q132 132 132 141 L130 144 L136 150 L140 150 L142 148 L144 148 L145 150 L147 148 L142 87 Q161 92 161 108 L153 144 L155 146 L157 146 Q166 146 170 118 L168 116 L168 114 L176 95 L178 95 L180 156 L153 152 L149 158 L176 165 Q190 165 191 148 L189 148 L191 146 L189 118 L189 99 L191 78 L185 70 L170 82 L164 80 L149 86 Q142 86 142 72 L134 67 L132 67 Q126 68 126 78 L136 131 L134 131 Q118 115 106 91 L106 67 L119 78 L121 76 L123 76 Q123 72 109 59 Q104 45 88 36 L71 13 Q63 0 60 0 L58 0 L54 4 Q54 15 88 48 L94 55 L94 59 L90 70 L92 78 L92 80 L90 80 L75 68 L68 74 Q90 110 96 131 L96 135 L94 135 Q39 110 31 110 Q22 110 20 116 L20 118 L24 122 L26 122 L30 118 Q47 122 96 146 L96 175 Q96 183 83 194 L88 201 ZM199 61 Q250 61 250 53 L250 51 L246 46 Q193 53 193 57 Q193 61 199 61 ZM166 53 L172 51 L168 46 Q168 42 197 34 L210 23 L210 21 Q210 11 147 6 Q121 6 104 23 L104 27 L106 30 Q122 15 153 15 Q165 15 189 23 L189 25 L161 38 L157 38 L144 36 L136 42 L136 44 Q136 46 164 51 L166 53 Z" /><glyph glyph-name="uni50CF" unicode="&#x50cf;" d="M120 218 L122 218 L130 213 L128 203 L128 194 L130 194 L141 197 Q155 195 155 190 L155 188 Q155 179 137 161 L168 167 L172 167 Q186 165 187 159 L187 156 Q187 137 143 106 Q137 106 122 85 L122 83 L143 80 L172 112 L179 112 Q184 112 189 93 Q189 79 166 45 L170 45 L240 59 L244 59 L250 53 L250 51 Q250 44 221 42 L208 44 Q156 35 156 21 Q141 -4 130 -4 Q109 0 109 13 Q114 39 134 68 L134 72 L113 72 L107 78 L107 82 L122 102 L122 106 L117 114 L117 121 Q117 128 128 144 L128 146 L126 146 Q105 132 105 120 Q106 112 109 112 Q107 85 99 85 Q96 85 92 97 L90 97 Q78 36 67 36 L61 42 Q65 60 65 97 L65 102 Q65 106 60 106 Q56 106 37 87 L35 87 L31 91 Q52 151 58 156 L60 156 L63 152 L63 148 L52 116 L60 116 Q77 116 77 82 L79 82 L88 108 L79 144 L84 148 L92 142 Q126 154 143 184 L143 188 L118 178 L113 184 Q117 218 120 218 ZM136 152 L149 144 L149 139 L143 118 Q164 132 175 152 L175 156 L172 159 L136 152 ZM92 137 L92 131 L94 131 L99 137 L92 137 ZM134 135 L128 120 L132 120 L136 133 L136 135 L134 135 ZM170 102 L151 80 L151 74 L162 57 Q177 83 177 95 L177 101 L170 102 ZM124 36 L126 34 L124 25 L124 11 L128 6 Q145 14 151 32 L149 40 L149 42 L153 49 Q153 58 143 66 Q134 60 124 36 Z" /><glyph glyph-name="uni4E9B" unicode="&#x4e9b;" d="M137 205 L146 205 Q156 205 165 156 Q181 143 199 139 L199 133 Q199 129 194 129 L186 131 Q163 126 163 118 L161 104 L161 97 Q201 108 215 108 L222 99 L222 97 Q191 70 150 70 L148 68 L148 65 L150 65 L165 66 Q173 64 173 61 L173 59 Q150 30 140 30 L140 32 Q156 51 156 55 L142 55 Q128 55 120 66 L120 68 L125 74 L135 68 Q141 73 186 84 Q198 97 209 97 L209 99 L203 99 L163 87 L159 87 L152 95 L152 106 L154 116 L152 116 Q98 95 83 68 L85 66 L85 63 Q85 57 78 57 Q68 57 44 85 Q34 85 34 91 L38 95 L40 95 Q48 95 70 72 Q90 99 148 125 Q154 125 154 129 L154 163 Q154 179 137 201 L137 205 ZM121 158 Q130 158 133 141 Q133 120 97 108 Q78 130 78 139 L80 141 L82 141 L99 123 Q99 144 121 158 ZM116 142 L114 144 L112 144 L104 122 L104 118 L106 118 Q121 129 121 133 L121 146 L116 142 ZM167 139 L165 137 L165 133 L167 133 L171 137 L169 139 L167 139 ZM135 28 L137 27 L137 23 L125 11 L125 9 L135 9 Q148 9 188 23 Q196 20 196 17 L196 15 Q196 9 135 -2 L125 -2 Q115 -2 112 6 L112 11 Q123 28 135 28 Z" /><glyph glyph-name="uni5FC3" unicode="&#x5fc3;" d="M104 112 L114 112 Q127 101 137 101 L150 112 L154 109 Q144 90 131 90 Q115 95 104 109 L104 112 ZM197 101 Q232 89 232 71 L226 67 L224 67 Q213 83 201 93 L197 99 L197 101 ZM55 82 L57 71 L55 71 L59 59 Q50 37 42 29 L40 29 Q35 29 34 36 Q49 78 55 82 ZM158 76 L159 74 L161 76 Q162 72 194 65 Q211 53 211 50 L211 48 Q190 23 133 23 Q111 23 91 50 L85 69 L87 71 L89 71 Q93 69 106 44 L131 33 L133 34 L148 34 Q190 39 190 46 Q188 51 154 74 L156 76 L158 76 Z" /><glyph glyph-name="uni70DF" unicode="&#x70df;" d="M190 195 Q205 185 211 119 L209 119 Q218 102 222 38 L220 36 L220 34 L222 32 Q219 -10 211 -10 L209 -10 Q175 -10 146 20 L122 19 Q114 19 110 26 L110 28 Q141 50 162 74 L162 76 L135 68 L133 70 L133 74 L141 98 L137 98 L120 91 L112 95 Q112 63 101 58 L99 45 L101 43 L101 41 Q98 34 95 34 L91 34 L65 64 L46 38 L44 38 L40 41 L40 43 Q40 53 53 70 L53 74 L44 74 Q35 77 19 129 L21 131 L25 131 Q32 131 46 87 L49 85 Q65 85 65 117 L65 136 Q55 145 55 157 L61 161 Q70 161 76 138 Q85 136 105 117 L106 146 L110 146 Q118 143 118 133 L114 108 L114 106 L116 104 L116 102 Q144 108 144 127 L143 148 L144 150 L146 150 Q151 150 169 117 Q167 112 152 106 L146 83 L169 87 L179 87 L182 83 L182 81 Q129 33 129 30 L131 30 Q170 38 182 43 L184 41 L184 39 Q174 24 154 24 L154 22 Q154 13 203 3 L205 3 Q209 13 209 38 L209 60 Q193 184 184 184 Q167 180 143 159 L139 163 Q167 195 190 195 ZM80 123 L74 100 Q83 105 91 115 L80 123 ZM67 74 L91 49 Q91 65 103 110 Q67 85 67 74 Z" /><glyph glyph-name="uni4E00" unicode="&#x4e00;" d="M161 97 L187 99 Q209 99 209 93 L209 87 L204 84 L185 86 L160 83 L136 80 Q102 70 73 70 Q61 75 58 81 L60 83 L73 81 Q98 81 161 97 Z" /><glyph glyph-name="uni610F" unicode="&#x610f;" d="M112 213 Q127 204 132 194 Q132 190 119 182 L117 184 L121 194 Q108 203 108 211 L110 213 L112 213 ZM106 176 L108 176 Q119 171 119 154 L121 154 L127 157 L129 156 Q113 131 113 118 Q146 129 146 150 L146 159 Q146 162 132 165 L132 167 L138 171 Q153 171 157 159 L157 150 Q157 140 151 133 L151 131 L153 131 Q195 144 212 144 Q222 141 222 133 L186 119 L182 119 L182 121 Q193 133 207 133 L207 137 Q180 137 96 97 L98 95 L98 93 L96 91 Q100 82 110 76 Q131 112 163 112 Q175 112 176 97 Q144 49 125 49 Q106 32 104 26 Q126 4 148 4 Q175 4 191 23 L157 26 L153 26 L132 24 Q121 29 121 32 L159 43 Q176 59 184 59 L184 55 L163 36 L163 34 L182 36 L195 36 Q208 28 208 23 Q180 -6 150 -6 L140 -6 Q127 -6 96 19 L94 19 L70 0 L66 0 L64 2 L62 2 Q62 20 96 32 L113 53 L113 55 Q107 55 89 85 L87 93 L45 80 Q26 82 26 89 L26 91 L30 95 L43 91 Q57 91 98 108 L98 114 Q108 144 108 159 Q108 167 96 169 L96 175 L106 176 ZM123 81 L123 78 Q138 89 148 89 L151 80 Q165 92 165 102 L157 104 Q123 93 123 81 ZM191 62 L195 62 L224 42 L224 40 Q224 36 218 36 Q199 44 188 59 L191 62 Z" /><glyph glyph-name="uni6D8C" unicode="&#x6d8c;" d="M132 197 L140 197 L142 195 L144 197 L146 197 Q166 194 166 187 L158 171 L158 169 Q168 169 168 163 L158 153 L156 155 L154 155 Q136 145 136 132 Q130 132 130 128 L130 126 Q161 149 178 149 L186 149 Q211 137 211 19 L202 13 Q182 15 162 34 L158 23 L160 21 Q156 -23 150 -23 L148 -21 L148 11 L150 13 L148 15 L150 25 L150 46 L146 50 L132 38 L128 38 L122 44 L122 46 L136 66 L136 70 Q130 70 130 74 L130 76 L132 76 L140 70 Q150 83 150 90 L150 94 L148 94 Q133 94 124 86 L120 86 L120 92 L118 92 Q113 56 104 56 L99 64 Q99 85 128 143 Q120 146 120 149 L120 153 Q151 174 152 183 L136 187 L120 185 Q120 177 114 177 L112 179 L112 183 Q121 197 132 197 ZM55 165 Q79 159 79 143 Q76 135 73 135 L69 139 L71 141 L71 143 L49 161 Q49 165 55 165 ZM152 128 L152 126 L156 114 L158 114 L172 116 L178 108 L162 88 L162 80 L164 80 Q174 86 174 94 L180 94 L180 92 Q180 83 162 64 L162 46 L198 25 L200 27 L200 29 Q195 137 180 137 L180 139 Q152 133 152 128 ZM122 98 L122 94 Q146 107 146 112 Q146 122 142 122 Q136 121 122 98 ZM53 112 L57 112 L57 110 L53 110 L53 112 ZM53 104 L59 104 Q67 82 71 54 L73 54 L87 96 L89 96 Q79 21 69 21 L61 29 L63 30 L53 102 L53 104 ZM130 86 L130 78 L126 78 L126 82 L130 86 Z" /><glyph glyph-name="uni7528" unicode="&#x7528;" d="M162 172 Q182 172 185 138 Q191 118 199 20 Q190 13 185 13 Q166 13 138 47 L138 7 L136 -16 L134 -16 Q128 -16 128 28 L128 32 L126 39 L128 45 L126 47 L126 49 L128 56 L126 58 L109 52 L105 58 L105 60 L117 73 L100 89 Q101 93 124 100 L124 108 L121 136 L123 138 L126 138 Q133 136 136 108 L166 121 L168 121 L172 117 L149 94 Q157 84 157 77 L157 75 L138 60 Q155 37 183 26 L185 26 Q178 161 164 161 L94 134 L92 136 L92 138 Q116 155 162 172 ZM66 134 L69 134 L69 130 L66 130 L66 134 ZM69 128 L71 128 Q75 128 79 113 Q78 94 75 94 L77 92 Q71 51 62 47 L56 52 Q69 110 69 128 ZM117 87 L117 85 L124 79 L126 90 L117 87 ZM142 87 L140 85 L140 75 Q147 78 147 81 L142 87 Z" /><glyph glyph-name="uni6709" unicode="&#x6709;" d="M120 212 L126 212 Q133 212 135 187 L130 158 Q165 170 179 170 L192 170 Q204 169 204 164 Q200 156 194 156 L183 158 L181 156 L179 156 L168 158 Q114 148 114 130 L103 113 L105 113 L107 115 L109 115 L109 113 Q93 87 73 69 L69 69 L65 73 L65 77 Q85 100 103 132 L103 134 L95 134 Q81 124 69 124 L59 124 Q49 124 44 134 L44 143 L46 143 Q54 136 61 136 L71 136 Q120 147 120 166 L122 175 Q122 185 112 196 L112 198 Q112 208 120 212 ZM122 198 L122 193 L124 193 L124 198 L122 198 ZM162 141 L164 141 Q171 141 173 118 L171 117 L173 103 L173 79 L175 69 L173 69 L187 -1 L181 -7 Q143 6 143 33 L145 41 L149 41 Q149 26 175 8 L175 12 Q165 47 162 94 L164 99 L162 101 L162 103 L164 115 L160 130 Q152 130 137 115 L131 115 L131 111 L133 111 L120 29 L122 27 L122 25 Q119 17 112 14 L107 23 Q120 86 120 111 L120 117 L116 122 L122 126 L133 117 Q133 133 162 141 ZM145 103 Q150 103 154 79 Q150 46 143 46 Q139 46 139 52 L143 77 L139 101 L141 103 L145 103 Z" /><glyph glyph-name="uni53C8" unicode="&#x53c8;" d="M134 137 Q149 135 149 122 Q149 97 134 57 Q170 46 199 46 L239 50 L243 44 L235 36 L199 34 L129 46 Q113 23 92 23 Q62 27 62 34 L64 36 L64 38 L87 34 L92 34 Q111 34 119 53 Q79 72 79 86 L83 90 Q111 65 125 65 Q138 92 138 122 L138 128 Q128 128 106 107 L102 107 L98 110 L102 114 Q107 114 108 124 Q128 137 134 137 Z" /><glyph glyph-name="uni4E91" unicode="&#x4e91;" d="M103 175 L105 175 Q125 171 153 150 L153 146 Q153 141 126 133 L126 135 Q130 144 136 144 L136 146 L105 169 L103 175 ZM207 125 L213 117 Q209 109 180 93 Q130 57 103 41 L100 38 L100 34 L130 41 L130 38 L170 53 L166 62 Q169 76 174 76 L178 76 Q185 76 206 17 L206 15 L199 9 Q193 9 182 45 L180 45 Q119 24 98 24 Q84 24 84 36 Q170 96 178 104 L64 70 L52 70 L41 80 L41 83 L60 104 L68 104 L68 99 L54 85 L54 83 L60 83 Q74 83 207 125 Z" /><glyph glyph-name="uni5728" unicode="&#x5728;" d="M104 174 Q118 176 120 147 L120 132 Q132 134 132 137 L128 143 L132 147 L137 147 Q171 142 171 136 Q171 129 149 129 L140 126 Q132 122 120 122 Q109 91 92 71 L96 51 Q100 51 100 56 L102 58 L104 58 L106 56 Q102 52 99 -4 L97 -6 L94 -6 L90 -2 L89 18 L85 58 L83 58 L51 22 L45 28 L45 34 Q55 54 70 54 L79 70 L79 73 L68 92 Q75 92 88 78 Q108 109 109 118 Q95 118 95 126 L95 130 L111 130 L113 147 L107 170 L104 174 ZM146 115 Q153 115 159 91 L187 93 L191 88 Q191 83 163 77 L163 51 L161 41 L159 32 L214 37 Q230 33 230 30 L227 23 L207 26 L189 26 L165 22 Q149 18 136 18 L119 18 L112 26 L113 28 L113 30 L123 28 L136 28 Q150 28 151 34 Q147 34 146 43 Q151 44 151 58 L150 77 L110 64 L108 66 L108 68 Q117 77 150 87 Q150 94 140 110 L146 115 Z" /><glyph glyph-name="uni8FD9" unicode="&#x8fd9;" d="M138 192 Q153 192 170 173 L162 166 L158 166 Q150 178 136 190 L138 192 ZM130 147 Q174 137 174 109 L174 107 Q174 93 170 86 Q184 86 196 71 L191 65 L170 76 L164 76 Q142 53 120 53 Q88 64 88 97 Q88 109 103 109 Q115 109 158 91 L162 91 L164 105 L164 107 Q164 129 124 137 L124 141 L130 147 ZM52 122 L56 122 Q66 38 92 38 L101 36 L115 38 L120 31 L115 25 L113 27 L111 25 Q52 25 52 97 L52 109 L54 116 L52 122 ZM100 101 L96 93 Q96 77 128 61 Q139 61 155 80 L155 82 L100 101 ZM219 31 L221 29 L221 27 Q180 8 139 8 Q139 4 107 4 Q75 8 75 17 L86 21 Q86 17 113 14 Q188 23 219 31 Z" /><glyph glyph-name="uni6B63" unicode="&#x6b63;" d="M120 146 L130 143 Q147 136 146 120 L146 116 L148 110 L148 108 L172 114 L178 112 L178 106 Q178 104 159 95 L157 93 L148 93 L147 90 L148 85 L148 57 L142 51 L140 51 Q136 51 134 65 L136 122 Q135 133 121 137 L107 136 L99 140 L101 144 L111 146 L120 146 ZM95 99 Q109 99 115 47 L115 42 L113 40 L113 38 L117 38 Q187 57 222 57 L237 57 L243 53 L244 47 L237 44 L225 47 Q192 47 68 17 Q43 21 43 28 L43 32 L47 36 Q47 29 70 27 L108 34 L108 36 Q102 36 98 44 L102 47 L104 46 L104 49 Q104 78 89 95 Q89 99 95 99 Z" /><glyph glyph-name="uni503C" unicode="&#x503c;" d="M124 179 L130 179 Q136 165 170 165 L174 162 Q174 153 140 148 Q135 148 123 80 L121 70 Q128 67 128 57 L128 51 L124 36 L124 32 L128 29 Q138 29 140 74 Q140 80 134 80 L132 82 L132 97 L136 101 Q149 101 149 61 L149 53 L161 30 L164 30 L164 80 Q164 96 157 124 L151 124 L138 122 L138 124 Q140 131 155 131 L159 131 Q169 131 174 80 L172 67 L174 23 L176 23 L221 34 Q238 33 238 29 L238 27 L233 21 L231 21 L223 23 Q138 4 102 0 Q81 3 81 10 L81 15 L102 11 Q162 15 162 23 L147 30 L143 30 Q136 25 130 25 L126 25 Q109 25 109 42 Q109 58 124 141 L119 143 Q100 139 90 125 Q85 117 79 91 L79 84 L75 84 L75 86 Q75 142 121 152 L124 152 L126 158 L121 175 L124 179 ZM136 163 L136 158 L142 158 L136 163 ZM48 133 L50 133 L58 125 L58 120 L50 87 Q66 87 67 48 Q73 65 73 80 L77 80 L77 78 Q77 24 62 13 L54 21 L56 44 L56 61 Q56 75 48 78 L43 74 L37 80 L50 125 L48 133 ZM119 59 L119 51 L121 51 L123 65 Q119 65 119 59 Z" /><glyph glyph-name="uni79CD" unicode="&#x79cd;" d="M159 173 Q180 156 180 124 L180 120 L221 129 L225 124 L185 84 L182 76 L180 46 L182 29 L180 -11 L178 -13 L180 -15 L180 -32 L176 -36 Q170 -28 170 -21 L172 32 L170 57 L172 69 L170 69 L155 51 L149 57 L149 61 Q160 72 163 84 L164 86 L166 86 L168 80 L172 84 L172 105 L170 105 Q152 98 134 76 L134 70 L138 65 L138 61 L132 55 Q123 60 117 80 L119 86 Q96 62 96 44 L98 36 L98 31 L92 25 Q87 25 83 44 Q62 25 56 25 Q47 28 47 34 L85 91 L83 93 Q50 76 37 76 L30 76 L20 86 L20 93 L33 105 L33 101 L28 89 L37 86 L83 103 Q83 109 75 116 L75 120 Q75 124 81 124 Q92 118 92 110 L102 112 L104 112 L107 107 Q107 103 96 101 L96 99 L100 93 L100 91 L96 76 L96 72 L98 72 L121 99 L130 91 L170 116 L170 122 Q170 141 155 171 L157 173 L159 173 ZM71 162 L83 162 Q113 158 113 139 L106 131 L100 131 Q85 131 83 139 L85 141 L87 141 L98 137 L100 139 L100 143 Q100 145 71 160 L71 162 ZM182 107 L183 93 L204 116 L204 118 Q182 112 182 107 ZM60 40 L60 38 L64 38 L85 59 L85 67 Q80 67 60 40 Z" /><glyph glyph-name="uni7740" unicode="&#x7740;" d="M145 215 L147 215 Q160 215 160 202 Q156 185 128 166 L130 166 L162 175 L164 173 L164 169 L138 147 L140 147 L166 154 L168 154 L168 150 Q155 137 122 114 L124 114 L168 129 Q168 135 172 135 L197 135 L200 131 L200 129 Q200 125 162 118 Q127 108 122 103 L122 101 Q130 101 130 93 Q153 112 162 112 Q174 105 174 15 Q174 -15 164 -15 Q136 -7 136 4 L134 2 L132 2 L124 8 L124 12 Q136 44 136 63 L134 72 L136 74 L141 74 L147 69 L140 14 L160 -4 L164 23 L164 38 L162 46 L164 48 Q160 101 157 101 Q126 88 126 67 L115 19 L117 17 L117 15 Q113 7 109 6 L105 6 Q100 7 100 21 Q121 80 121 93 L121 95 L119 97 L119 99 L121 101 L119 103 L117 103 Q104 92 90 67 Q63 33 58 33 L54 36 L54 40 Q90 78 96 93 L92 93 L64 88 L60 93 Q64 98 107 114 L107 118 L98 118 L94 122 L94 124 L115 141 L115 143 L113 145 L113 147 L92 141 L88 141 L86 148 Q122 163 151 204 L151 207 Q145 207 145 211 L145 215 ZM132 202 L134 202 L134 200 Q126 175 121 175 L113 175 Q101 175 86 194 L88 196 L88 198 Q111 185 117 185 Q124 185 124 196 L132 202 ZM121 150 L121 143 Q125 143 138 158 L136 158 L121 150 ZM122 124 L132 129 L132 133 L122 124 Z" /><glyph glyph-name="uni8BF6" unicode="&#x8bf6;" d="M137 196 L141 196 Q154 187 154 175 L154 169 L153 150 Q166 155 173 162 L177 162 L181 158 L181 154 L135 101 L135 99 L187 118 L191 118 L196 112 Q158 82 158 78 L160 69 L238 91 L244 90 L246 91 L248 91 Q257 89 257 86 L257 84 Q257 78 249 78 Q209 78 158 57 Q158 40 130 2 L122 2 L118 6 L118 10 L124 15 L126 15 L128 14 L130 14 Q149 46 149 55 L147 55 L118 48 Q109 50 109 53 Q120 65 147 78 L147 90 L149 90 L158 88 L175 105 L173 105 Q151 91 132 91 L126 99 L126 101 Q154 133 154 139 L153 137 L143 137 L137 141 Q145 155 145 171 L145 173 L132 185 L132 190 L137 196 ZM59 173 L65 173 Q75 173 86 162 L86 160 L80 154 L78 154 L59 171 L59 173 ZM113 116 L116 116 Q93 32 73 10 L69 10 Q63 10 61 31 L69 95 L67 97 L63 97 Q32 76 16 76 L10 84 L10 91 L14 95 L18 88 Q33 88 61 107 L63 107 Q78 107 78 88 L71 27 L75 27 Q94 61 113 116 ZM132 61 Q151 64 151 69 L151 72 L147 72 Q132 64 132 61 ZM183 42 Q211 9 211 -2 L211 -11 L208 -15 Q204 -15 198 6 Q179 28 179 38 L179 40 L181 42 L183 42 Z" /></font>
</defs>
</svg>
